<svg width="56" height="48" viewBox="0 0 56 48" fill="none" xmlns="http://www.w3.org/2000/svg">
<path d="M47.311 14.6266C46.4721 13.452 45.9687 12.1096 45.8009 10.6833C45.4093 6.73997 45.4093 2.82465 43.7313 1.14665C41.4381 -0.22371 37.9422 3.32805 37.4948 3.35601C35.8727 3.38398 31.7616 2.82465 27.6785 2.82465C23.5954 2.82465 19.5123 3.38398 17.8622 3.35601C17.3868 3.35601 13.9189 -0.22371 11.6257 1.14665C9.91972 2.82465 9.94768 6.73997 9.55615 10.6833C9.38835 12.1096 8.88495 13.452 8.04596 14.6266C4.4103 19.8283 5.38913 25.1979 6.33999 25.8971C7.40272 26.6522 13.024 25.7293 15.541 24.6106C19.5962 22.7928 21.9174 17.5351 27.6785 17.5351C33.4396 17.5351 35.7609 22.7928 39.816 24.6106C42.333 25.7293 47.9543 26.6802 49.017 25.8971C49.9679 25.1979 50.9467 19.8283 47.311 14.6266Z" fill="#F0844E"/>
<path d="M44.7382 8.11033C34.4745 6.8798 27.6786 6.90777 27.6786 6.90777C27.6786 6.90777 20.8827 6.8798 10.619 8.11033L10.4512 14.4587C10.4512 14.4587 25.0218 13.9833 27.6506 14.0392C30.2795 13.9833 44.8501 14.4587 44.8501 14.4587L44.7382 8.11033Z" fill="white"/>
<path d="M50.0799 21.5343C49.9121 20.947 49.7163 20.3876 49.4367 19.8283C48.9053 18.7936 48.2341 17.8147 47.479 16.9198L46.9197 16.2766L46.3324 15.6333L46.1925 15.4655C46.1646 15.4096 46.1086 15.3816 46.0807 15.3257C45.9968 15.2418 45.9129 15.1579 45.8569 15.046C45.7171 14.8503 45.6332 14.6265 45.5493 14.4028C45.4374 14.0672 45.3535 13.7036 45.3535 13.3401V11.2426C45.3535 8.94931 45.1857 6.65605 44.8222 4.39076C44.7103 3.80346 44.5705 3.24413 44.4027 2.68479C44.2349 2.0975 43.9552 1.5102 43.6196 1.0068C43.5357 0.866965 43.4238 0.727132 43.284 0.615265C43.1442 0.475432 43.0043 0.363566 42.8365 0.279666C42.6687 0.1678 42.5009 0.111867 42.3052 0.0559334C42.1933 0.0279668 42.1094 0.0279666 41.9975 0H41.7459C41.0747 0.0279666 40.4594 0.2517 39.9001 0.615265C38.8373 1.28646 38.1102 2.18139 37.2992 2.96446C36.9076 3.32803 36.4881 3.71956 36.1246 3.80346C36.0686 3.80346 36.0407 3.83142 35.9847 3.83142H35.8169L35.3974 3.77549C35.1178 3.74752 34.8101 3.71956 34.5305 3.71956C33.3838 3.66362 32.2652 3.60769 31.1185 3.60769L29.4126 3.57972H26.0286L24.3227 3.60769C23.176 3.63566 22.0574 3.66362 20.9107 3.71956C20.6311 3.74752 20.3514 3.74752 20.0438 3.77549L19.6243 3.83142H19.4565C19.4005 3.83142 19.3726 3.83142 19.3166 3.80346C18.8692 3.63566 18.4497 3.35599 18.142 2.96446C17.359 2.20936 16.6039 1.28646 15.5412 0.615265C14.9818 0.2517 14.3666 0.0279666 13.6954 0H13.4437C13.3318 0 13.2479 0.0279668 13.136 0.0559334C12.9403 0.111867 12.7725 0.1678 12.6047 0.279666C12.4369 0.363566 12.297 0.475432 12.1572 0.615265C12.0453 0.727132 11.9335 0.866965 11.8216 1.0068C11.486 1.53816 11.2063 2.0975 11.0385 2.68479C10.8707 3.24413 10.7309 3.83142 10.619 4.39076C10.2555 6.65605 10.0597 8.94931 10.0877 11.2426V13.3401C10.0877 13.7036 10.0038 14.0672 9.8919 14.4028C9.808 14.6265 9.69614 14.8503 9.58427 15.046C9.52834 15.1579 9.44444 15.2418 9.36054 15.3257C9.33257 15.3816 9.27664 15.4096 9.24867 15.4655L9.10884 15.6333L8.52154 16.2766L7.96221 16.9198C7.20711 17.8147 6.53591 18.7936 6.00454 19.8283C5.72488 20.3597 5.52911 20.947 5.36131 21.5343C5.22148 22.1495 5.16555 22.7648 5.19352 23.3801C5.22148 23.6877 5.27741 23.9953 5.33335 24.303C5.41725 24.6106 5.50115 24.8623 5.58505 25.1699C5.78081 25.7293 6.00455 26.2606 6.25624 26.792C6.75964 27.8268 7.34694 28.8336 8.01814 29.7844C8.68934 30.7353 9.41647 31.6023 10.1995 32.4412C10.9826 33.2802 11.8775 34.0074 12.8284 34.6506L12.9962 34.4269C12.2411 33.5879 11.514 32.7489 10.7868 31.8819C10.0597 31.0429 9.3885 30.148 8.77324 29.2251C8.15797 28.3022 7.62661 27.3513 7.15118 26.3445C6.92744 25.8411 6.73168 25.3377 6.56388 24.8064C6.47998 24.5547 6.39608 24.275 6.34015 24.0233C6.28421 23.7716 6.25624 23.5199 6.22828 23.2682C6.20031 22.7648 6.25624 22.2614 6.39608 21.758C6.53591 21.2546 6.73168 20.7512 6.98338 20.3037C7.51474 19.3529 8.13001 18.458 8.82917 17.6469L9.36054 17.0317L9.91987 16.4444L10.0597 16.3045C10.1156 16.2486 10.1716 16.1927 10.2275 16.1088C10.3394 15.9969 10.4512 15.8571 10.5351 15.7172C10.7309 15.4376 10.8707 15.1579 10.9826 14.8503C11.1504 14.4028 11.2343 13.8994 11.2623 13.424V11.2705C11.2343 9.03321 11.4021 6.82385 11.7377 4.61449C11.8216 4.08312 11.9614 3.55176 12.1013 3.02039C12.2411 2.51699 12.4369 2.04156 12.7165 1.62206C12.7725 1.53816 12.8564 1.45426 12.9123 1.37036C12.9682 1.28646 13.0521 1.23053 13.136 1.1746C13.192 1.11866 13.2759 1.0907 13.3598 1.06273C13.3877 1.06273 13.4437 1.06273 13.4716 1.03476H13.6394C14.1149 1.06273 14.5903 1.20256 14.9818 1.45426C15.8768 1.95766 16.6319 2.79666 17.4988 3.57972C17.7225 3.77549 17.9463 3.97126 18.198 4.13906C18.4776 4.33482 18.7853 4.47466 19.1209 4.55856C19.2048 4.58652 19.3166 4.58652 19.4005 4.58652H19.5404C19.5963 4.58652 19.6243 4.58652 19.6522 4.55856L20.0717 4.50262L20.9107 4.41872C22.0294 4.30686 23.1481 4.22296 24.2667 4.13906L25.9447 4.02719L26.7837 3.97126L27.2032 3.94329H28.0422L28.4617 3.97126L29.3007 4.02719L30.9787 4.13906C32.0974 4.22296 33.244 4.30686 34.3347 4.41872L35.1737 4.50262L35.5932 4.55856C35.6212 4.55856 35.6771 4.55855 35.7051 4.58652H35.8449C35.9288 4.58652 36.0407 4.58652 36.1246 4.55856C36.4602 4.47466 36.7678 4.33482 37.0475 4.13906C37.2992 3.97126 37.5229 3.77549 37.7466 3.57972C38.6136 2.79666 39.3687 1.95766 40.2636 1.45426C40.6831 1.20256 41.1306 1.06273 41.606 1.03476H41.7738C41.8018 1.03476 41.8577 1.06273 41.8857 1.06273C41.9696 1.0907 42.0535 1.11866 42.1094 1.1746C42.1933 1.23053 42.2772 1.28646 42.3332 1.37036C42.4171 1.45426 42.473 1.53816 42.5289 1.62206C42.8086 2.04156 43.0043 2.51699 43.1442 3.02039C43.284 3.55176 43.4238 4.08312 43.5077 4.61449C43.8433 6.82385 44.0111 9.03321 43.9832 11.2705V13.424C44.0111 13.8994 44.095 14.4028 44.2628 14.8503C44.3747 15.1579 44.5145 15.4655 44.7103 15.7172C44.7942 15.8571 44.9061 15.9969 45.0179 16.1088C45.0739 16.1647 45.1298 16.2206 45.1857 16.3045L45.3256 16.4444L45.8849 17.0317L46.4163 17.6469C47.1434 18.458 47.7587 19.3529 48.2621 20.3037C48.4858 20.7792 48.6816 21.2546 48.8494 21.758C48.9892 22.2614 49.0451 22.7648 49.0172 23.2682C48.9892 23.5199 48.9612 23.7716 48.9053 24.0233C48.8494 24.275 48.7655 24.5267 48.6816 24.8064C48.5138 25.3377 48.318 25.8411 48.0943 26.3445C47.6468 27.3513 47.0875 28.3022 46.4722 29.2251C45.8569 30.148 45.1578 31.015 44.4586 31.8819C43.7594 32.7489 43.0043 33.5879 42.2493 34.4269L42.417 34.6506C43.3679 34.0074 44.2628 33.2802 45.0459 32.4412C45.829 31.6023 46.5561 30.7073 47.2273 29.7844C47.8985 28.8336 48.4858 27.8268 48.9892 26.792C49.2409 26.2606 49.4646 25.7293 49.6604 25.1699C49.7723 24.8903 49.8562 24.5826 49.9121 24.303C49.996 23.9953 50.024 23.6877 50.0519 23.3801C50.2477 22.7928 50.2757 22.1495 50.0799 21.5343Z" fill="black"/>
<path d="M20.0154 15.6893C20.379 15.6054 20.7705 15.5774 21.1341 15.6333C21.5256 15.6613 21.8892 15.7732 22.2527 15.913C23.0078 16.1927 23.5951 16.752 23.9307 17.4791C23.9587 17.563 23.9307 17.6469 23.8468 17.6749C23.7909 17.7029 23.7349 17.7029 23.707 17.6469C23.4273 17.4512 23.1477 17.2554 22.84 17.1156C22.5604 16.9757 22.2527 16.8639 21.9451 16.752C21.6375 16.6681 21.3019 16.5842 20.9942 16.5283C20.6586 16.4723 20.323 16.4164 19.9874 16.3325C19.8196 16.2766 19.7078 16.1088 19.7357 15.941C19.7917 15.8011 19.9035 15.6893 20.0154 15.6893Z" fill="black"/>
<path d="M13.3038 3.43994C13.8072 2.04161 15.9327 3.32807 16.5759 4.36283C17.359 5.6493 13.947 7.49509 13.2199 6.85186C12.4928 6.18066 12.8843 4.5586 13.3038 3.43994Z" fill="white"/>
<path d="M25.0213 16.5003C25.67 16.5003 26.1959 16.0495 26.1959 15.4935C26.1959 14.9375 25.67 14.4867 25.0213 14.4867C24.3726 14.4867 23.8467 14.9375 23.8467 15.4935C23.8467 16.0495 24.3726 16.5003 25.0213 16.5003Z" fill="white"/>
<path d="M35.3691 16.3045C35.0335 16.3884 34.6979 16.4443 34.3623 16.5003C34.0546 16.5562 33.719 16.6401 33.4114 16.724C33.1038 16.8079 32.7961 16.9198 32.5165 17.0876C32.2088 17.2554 31.9292 17.4232 31.6495 17.6189C31.5936 17.6749 31.5097 17.6469 31.4537 17.591C31.4258 17.563 31.4258 17.5071 31.4258 17.4511C31.7614 16.724 32.3766 16.1647 33.1038 15.885C33.4673 15.7452 33.8309 15.6333 34.2224 15.6053C34.586 15.5774 34.9775 15.5774 35.3411 15.6613C35.5089 15.7172 35.6208 15.885 35.5928 16.0528C35.5928 16.1926 35.5089 16.3045 35.3691 16.3045Z" fill="black"/>
<path d="M42.0814 3.43994C41.578 2.04161 39.4526 3.32807 38.8093 4.36283C38.0263 5.6493 41.4382 7.49509 42.1653 6.85186C42.9204 6.18066 42.5009 4.5586 42.0814 3.43994Z" fill="white"/>
<path d="M30.3631 16.5003C31.0118 16.5003 31.5377 16.0495 31.5377 15.4935C31.5377 14.9375 31.0118 14.4867 30.3631 14.4867C29.7144 14.4867 29.1885 14.9375 29.1885 15.4935C29.1885 16.0495 29.7144 16.5003 30.3631 16.5003Z" fill="white"/>
<path d="M27.7064 13.2282C29.0965 13.2282 30.2234 12.1013 30.2234 10.7112C30.2234 9.32111 29.0965 8.19421 27.7064 8.19421C26.3163 8.19421 25.1895 9.32111 25.1895 10.7112C25.1895 12.1013 26.3163 13.2282 27.7064 13.2282Z" fill="#B01F17"/>
<path d="M16.2403 36.888C17.2471 36.9439 18.2538 37.0278 19.2327 37.0558C19.7361 37.0837 20.2395 37.1117 20.7149 37.1117C21.2183 37.1397 21.6937 37.1397 22.1971 37.1397C24.1828 37.1676 26.1684 37.1117 28.154 37.0278C30.1396 36.9439 32.1253 36.7761 34.1389 36.6083C36.1525 36.4405 38.1381 36.2447 40.1797 36.1049C40.6271 36.0769 41.0187 36.3846 41.0466 36.832C41.0746 37.1956 40.8509 37.5592 40.4873 37.671C38.5296 38.2863 36.516 38.7617 34.4745 39.0973C32.4329 39.4609 30.3634 39.6846 28.2939 39.7965C26.1964 39.9084 24.0989 39.8524 22.0293 39.6287C19.9318 39.405 17.8903 38.9575 15.9047 38.2583C15.5411 38.1185 15.3453 37.699 15.4572 37.3354C15.625 37.0558 15.9326 36.888 16.2403 36.888Z" fill="#B01F17"/>
<path d="M39.5078 40.6915C39.4518 40.6355 39.3679 40.6635 39.312 40.7194C38.5849 41.7822 37.7459 42.7889 36.823 43.6839C35.9001 44.5788 34.8653 45.3339 33.7187 45.9212C32.6 46.4246 31.3415 46.5644 30.139 46.3687C28.8805 46.2009 27.6499 45.8653 26.4753 45.3898L26.0279 45.222C25.8601 45.1661 25.7202 45.1102 25.5245 45.0542C25.4965 45.0542 25.4686 45.0263 25.4126 45.0263H25.105C25.049 45.0542 24.9652 45.0542 24.9092 45.1102C24.8253 45.1661 24.7694 45.222 24.7135 45.278C24.6296 45.3619 24.6016 45.5017 24.6016 45.6136V45.7814C24.6016 45.8373 24.6296 45.8653 24.6296 45.9212C24.6575 46.0051 24.6855 46.117 24.7414 46.2009L24.9092 46.6204C24.9652 46.7043 24.9931 46.8161 25.0211 46.928H24.8812C24.7414 46.9 24.6016 46.8721 24.4897 46.8161C23.9304 46.5924 23.3711 46.2848 22.8956 45.9212C22.3643 45.5576 21.8888 45.1381 21.4134 44.7186C20.4625 43.8517 19.5396 42.9288 18.6447 42.0059C18.1972 41.5305 17.7498 41.083 17.3023 40.6076L16.6591 39.9084C16.5752 39.7686 16.4353 39.6567 16.2955 39.5728C16.2116 39.5448 16.0997 39.5169 16.0158 39.4889C15.876 39.4889 15.7362 39.4889 15.5963 39.5169C15.5124 39.5448 15.4285 39.6008 15.3726 39.6847C15.3167 39.8245 15.2607 39.9643 15.2607 40.1042C15.2607 40.216 15.2607 40.2999 15.2887 40.4118C15.3446 40.5796 15.4565 40.7194 15.5684 40.8313C15.7921 41.083 15.9879 41.3347 16.2116 41.5864C16.6591 42.0898 17.1345 42.5652 17.6099 43.0127C18.5608 43.9356 19.5956 44.8025 20.6583 45.6136C21.1897 46.0051 21.749 46.3966 22.3363 46.7602C22.9236 47.1517 23.5389 47.4594 24.2101 47.6831C24.4058 47.739 24.5736 47.795 24.7694 47.8229C25.0211 47.8789 25.2728 47.8509 25.5245 47.767C25.6923 47.6831 25.8601 47.5712 25.944 47.4034C26.0279 47.2636 26.0558 47.1238 26.0838 46.956V46.5365H26.1118C27.3982 46.9839 28.7406 47.2916 30.083 47.4034C30.7822 47.4594 31.4814 47.4594 32.1526 47.3475C32.8517 47.2356 33.5229 47.0119 34.1382 46.6763C35.3128 46.0051 36.3755 45.1381 37.2705 44.1313C38.1654 43.1525 38.9484 42.0618 39.5917 40.8872C39.5917 40.8033 39.5637 40.7474 39.5078 40.6915ZM25.077 46.8721C25.105 46.8721 25.105 46.8721 25.105 46.8441L25.077 46.8721Z" fill="black"/>
<path d="M0.998334 43.0685C-0.427962 43.2363 -0.76356 40.6913 2.98396 38.1464C4.13059 37.3354 5.47299 36.804 6.87132 36.5803C12.7163 35.7692 15.5969 41.0829 15.0655 42.2854C13.835 44.4109 11.2061 40.2439 6.87132 40.8591C4.99756 41.1388 3.17973 41.81 1.58563 42.8448C1.41783 42.9566 1.1941 43.0405 0.998334 43.0685Z" fill="#F0844E"/>
<path d="M15.4286 43.8516L15.2888 43.2643L15.2049 42.9567L15.093 42.677C14.8413 41.8939 14.4498 41.1388 13.9464 40.4956C13.443 39.7964 12.8277 39.2091 12.1286 38.7617C11.4014 38.3142 10.6184 38.0066 9.77936 37.8388C8.12933 37.5311 6.39541 37.7829 4.88521 38.51C3.37501 39.2091 2.08855 40.3278 1.22159 41.7541C0.354622 43.1524 -0.0369103 44.7745 0.102923 46.3966C0.102923 46.4805 0.158856 46.5364 0.242756 46.5364C0.298689 46.5364 0.354622 46.4805 0.382589 46.4245C0.494455 45.6694 0.690222 44.9423 0.969888 44.2431C1.80889 42.2016 3.40298 40.5795 5.41658 39.6846C6.73101 39.0973 8.1573 38.9015 9.5836 39.0973C10.2828 39.2091 10.954 39.4329 11.5692 39.7685C12.1845 40.132 12.7159 40.5795 13.1633 41.1388C13.6108 41.6982 13.9744 42.3414 14.1981 43.0126L14.31 43.2643L14.3939 43.516L14.5337 44.0474C14.6176 44.355 14.6176 44.6906 14.5896 44.9982C14.5337 45.2779 14.3939 45.5296 14.1701 45.7254C13.9184 45.9211 13.6108 46.0889 13.3032 46.1728C12.604 46.3966 11.8769 46.5084 11.1497 46.5644C11.0099 46.5644 10.8701 46.5923 10.7302 46.5923C10.7862 46.3406 10.7862 46.1169 10.7582 45.8652C10.7302 45.6135 10.7023 45.3898 10.6463 45.1381C10.5345 44.6626 10.3667 44.2152 10.115 43.7957C10.059 43.7118 9.94716 43.6838 9.86326 43.7397C9.80733 43.7677 9.77936 43.8236 9.77936 43.8796C9.72343 44.327 9.72343 44.8025 9.72343 45.2499V45.8932C9.72343 46.0889 9.72343 46.2847 9.7514 46.4805V46.5364C9.7514 46.5644 9.7514 46.5923 9.77936 46.5923C8.71663 46.6203 7.62594 46.5923 6.56321 46.6203H5.19284C5.22081 46.4245 5.22081 46.2567 5.19284 46.061C5.16488 45.8093 5.13691 45.5855 5.08098 45.3338C4.96911 44.8584 4.80131 44.4109 4.54961 43.9914C4.49368 43.9075 4.38181 43.8796 4.29791 43.9355C4.24198 43.9635 4.21401 44.0194 4.21401 44.0753C4.15808 44.5228 4.15808 44.9982 4.15808 45.4457V46.0889C4.15808 46.2567 4.15808 46.4245 4.18605 46.5923C3.43095 46.5923 2.67585 46.5923 1.92075 46.6203C1.72499 46.6203 1.55719 46.7881 1.55719 46.9839C1.55719 47.1796 1.69702 47.3195 1.89279 47.3474C3.43095 47.4034 4.99708 47.4313 6.53524 47.4593C8.0734 47.4873 9.63953 47.5432 11.2057 47.4313C12.0167 47.4034 12.8277 47.2635 13.6108 47.0118C14.0303 46.872 14.4498 46.6762 14.7854 46.3686C14.9812 46.2008 15.121 46.033 15.2608 45.8093C15.3727 45.5855 15.4846 45.3618 15.5405 45.1101C15.5685 44.6906 15.5125 44.2711 15.4286 43.8516Z" fill="black"/>
<path d="M55.0015 42.3694C56.4278 42.5372 56.7634 39.9923 53.0159 37.4473C51.8693 36.6363 50.5269 36.1049 49.1286 35.8812C43.2835 35.0701 40.403 40.3838 40.9343 41.5863C42.1649 43.7118 44.7937 39.5448 49.1286 40.16C51.0023 40.4397 52.8201 41.1109 54.4142 42.1457C54.582 42.2575 54.7778 42.3414 55.0015 42.3694Z" fill="#F0844E"/>
<path d="M55.7291 43.2643C55.5333 42.4533 55.2257 41.6982 54.7782 40.999C53.9112 39.5727 52.6248 38.4541 51.1146 37.7549C49.6044 37.0278 47.8705 36.804 46.2204 37.0837C45.3814 37.2515 44.5984 37.5591 43.8712 38.0066C43.1441 38.4541 42.5288 39.0414 42.0534 39.7405C41.55 40.4117 41.1864 41.1388 40.9068 41.9219L40.7949 42.2016L40.711 42.5092L40.5712 43.0965C40.4593 43.544 40.4593 43.9914 40.5432 44.4389C40.5991 44.6906 40.683 44.9143 40.8229 45.1381C40.9627 45.3338 41.1305 45.5296 41.2983 45.6974C41.6339 45.9771 42.0534 46.2008 42.4729 46.3406C43.256 46.5644 44.067 46.7042 44.878 46.7601C46.4721 46.872 48.0103 46.8161 49.5484 46.7881C51.0866 46.7601 52.6527 46.7322 54.1909 46.6762C54.3867 46.6762 54.5265 46.5364 54.5265 46.3406V46.3127C54.5265 46.1169 54.3587 45.9771 54.1629 45.9771C53.4917 45.9771 52.8205 45.9771 52.1773 45.9491C52.1773 45.7813 52.1773 45.6135 52.2053 45.4457V44.8025C52.2053 44.355 52.2053 43.8796 52.1493 43.4321C52.1493 43.3482 52.0654 43.2923 51.9536 43.2923C51.8976 43.2923 51.8417 43.3202 51.8137 43.3762C51.562 43.7957 51.3942 44.2431 51.2824 44.7186C51.2264 44.9423 51.1705 45.194 51.1705 45.4457C51.1425 45.6415 51.1425 45.8093 51.1705 46.005H49.5205C48.5416 46.005 47.5628 46.005 46.584 45.9771V45.8372C46.584 45.6694 46.612 45.4457 46.612 45.2499V44.6067C46.612 44.1592 46.612 43.6838 46.556 43.2363C46.556 43.1524 46.4721 43.0965 46.3603 43.0965C46.3043 43.0965 46.2484 43.1245 46.2204 43.1804C45.9687 43.5999 45.8009 44.0474 45.6891 44.5228C45.6331 44.7465 45.5772 44.9982 45.5772 45.2499C45.5492 45.5016 45.5772 45.7533 45.6331 45.9771C45.4094 45.9771 45.1577 45.9491 44.934 45.9491C44.2068 45.9211 43.4797 45.7813 42.7805 45.5576C42.4729 45.4737 42.1653 45.3059 41.9136 45.1101C41.6898 44.9143 41.55 44.6626 41.4941 44.383C41.4381 44.0753 41.4661 43.7397 41.55 43.4321L41.6898 42.9007L41.7737 42.649L41.8856 42.3973C42.1373 41.7261 42.4729 41.0829 42.9204 40.5236C43.3678 39.9642 43.8992 39.4888 44.5145 39.1532C45.1297 38.8176 45.8009 38.5659 46.5001 38.482C47.9264 38.2863 49.3527 38.482 50.6671 39.0693C52.6807 39.9643 54.2748 41.5863 55.1138 43.6279C55.3935 44.327 55.5892 45.0542 55.7011 45.8093C55.7011 45.8652 55.757 45.9211 55.8409 45.9211C55.8689 45.9211 55.8689 45.9211 55.8689 45.9211C55.9248 45.9211 55.9808 45.8372 55.9808 45.7813C56.0087 44.9423 55.9248 44.1033 55.7291 43.2643Z" fill="black"/>
<path d="M35.4814 24.8903C34.6424 25.2539 33.7474 25.3657 32.8525 25.2259C30.4754 24.9462 31.1186 23.0165 27.9863 23.0725V22.3174C28.7694 22.0097 30.8669 21.0868 30.6152 19.5487C30.4474 18.43 29.1609 18.0385 27.7067 17.9825C26.2524 18.0385 24.9659 18.43 24.7981 19.5487C24.5464 21.0868 26.6439 22.0377 27.427 22.3174V23.1004C23.1481 23.4081 24.91 26.5403 19.904 26.0929C19.4006 26.0649 18.8972 25.8971 18.4777 25.6454C18.3658 25.5895 18.226 25.6174 18.1421 25.7293C18.1141 25.7852 18.0862 25.8691 18.1141 25.9251C18.5336 27.1276 20.1277 28.2743 22.2252 29.0014C21.554 31.4624 22.5049 33.5879 23.7354 34.1472C24.7422 34.5947 26.6719 34.5388 27.6787 34.0913C29.0211 33.504 31.2584 32.2735 32.1254 28.3581C33.5517 27.5751 34.7263 26.4285 35.5932 25.0581C35.6212 25.0022 35.5932 24.9462 35.5653 24.9183C35.5373 24.8903 35.5093 24.8903 35.4814 24.8903Z" fill="black"/>
<path d="M27.7059 27.5471C26.9229 26.9878 24.4898 25.8691 23.0635 29.8404C22.3084 31.9938 23.483 33.1404 24.5177 33.5599C25.4406 33.9235 26.4754 33.7557 27.3703 33.3642C28.5729 32.8608 30.4746 31.5464 30.8102 29.337C31.3136 26.2886 27.9856 27.4353 27.7059 27.5471Z" fill="#F5AFAC"/>
<path d="M28.3773 27.2674C28.0696 27.4912 27.79 27.7429 27.5662 28.0505C27.3145 28.3581 27.0908 28.6937 26.895 29.0573C26.6713 29.4209 26.5035 29.7844 26.3077 30.176L25.7484 31.3226C25.7204 31.3785 25.6645 31.4345 25.6086 31.4065C25.5806 31.4065 25.5806 31.4065 25.5527 31.3785C25.4967 31.3506 25.4688 31.2946 25.4688 31.2387C25.5247 30.7912 25.6365 30.3717 25.7764 29.9522C25.9162 29.5327 26.084 29.1132 26.2518 28.7217C26.4196 28.3022 26.6433 27.9107 26.923 27.5471C27.2027 27.1556 27.5383 26.82 27.9298 26.5403C28.1256 26.4005 28.3773 26.4564 28.5171 26.6242C28.5171 26.6242 28.5171 26.6242 28.5171 26.6522C28.629 26.8759 28.573 27.1276 28.3773 27.2674Z" fill="black"/>
</svg>
