<svg width="22" height="23" viewBox="0 0 22 23" fill="none" xmlns="http://www.w3.org/2000/svg">
<path fill-rule="evenodd" clip-rule="evenodd" d="M7.67857 0.757311C7.46429 0.757311 7.35714 0.650729 7.14286 0.757311C7.03571 0.757311 6.82143 0.863893 6.71429 1.07706L4.25 5.34033C4.25 5.34033 4.25 5.44691 4.14286 5.44691V5.66007H3.60714C1.89286 5.66007 0.5 7.04564 0.5 8.75095C0.5 9.71018 0.928571 10.5628 1.67857 11.2023L1.78571 11.3089L2.64286 17.0643L3.17857 19.6223C3.5 20.9013 4.57143 21.9671 6.07143 22.1803C9.39286 22.6066 12.7143 22.6066 15.9286 22.1803C17.3214 21.9671 18.5 20.9013 18.8214 19.4091L19.3571 16.8512L20.2143 11.0957L20.3214 10.9892C21.0714 10.3497 21.5 9.49702 21.5 8.53778C21.5 6.83247 20.1071 5.44691 18.3929 5.44691H17.8571L17.75 5.23375C17.75 5.23375 17.75 5.12717 17.6429 5.12717L15.1786 0.863893C15.0714 0.757311 14.9643 0.650729 14.75 0.544148C14.5357 0.437566 14.4286 0.544148 14.2143 0.650729C13.8929 0.863893 13.7857 1.18364 14 1.50338L16.3571 5.66007H5.64286L7.89286 1.71655C8.10714 1.3968 8 0.970475 7.67857 0.757311ZM18.0714 16.638L17.5357 19.196C17.3214 20.0486 16.5714 20.7947 15.7143 20.9013C14.1071 21.1144 12.5 21.221 11 21.221C9.5 21.221 7.78571 21.1144 6.28571 20.9013C5.42857 20.7947 4.67857 20.0486 4.46429 19.196L3.92857 16.638L3.17857 11.7352H3.60714H18.8214L18.0714 16.638ZM18.3929 6.93906C19.3571 6.93906 20.2143 7.79171 20.2143 8.75095C20.2143 9.71018 19.3571 10.5628 18.3929 10.5628H3.60714C2.64286 10.5628 1.78571 9.71018 1.78571 8.75095C1.78571 7.79171 2.64286 6.93906 3.60714 6.93906H18.3929Z" fill="white"/>
</svg>
