<svg width="42" height="26" viewBox="0 0 42 26" fill="none" xmlns="http://www.w3.org/2000/svg">
<g clip-path="url(#clip0_0_1289)">
<path d="M29.6002 1.33337H5.10022C4.54794 1.33337 4.10022 1.78109 4.10022 2.33337V19.0001C4.10022 19.5524 4.54794 20.0001 5.10022 20.0001H29.6002C30.1525 20.0001 30.6002 19.5524 30.6002 19.0001V2.33337C30.6002 1.78109 30.1525 1.33337 29.6002 1.33337Z" stroke="black" stroke-width="1.5"/>
<path d="M5.42523 6.66675H29.2752" stroke="black" stroke-width="1.5" stroke-linecap="square"/>
<path d="M41.2002 14.7333V14.6C41.2002 8.74578 36.4544 4 30.6002 4C24.746 4 20.0002 8.74578 20.0002 14.6V14.7333C20.0002 20.5875 24.746 25.3333 30.6002 25.3333C36.4544 25.3333 41.2002 20.5875 41.2002 14.7333Z" fill="white"/>
<path d="M34.7182 22.0935C33.9864 22.8161 33.1472 23.421 32.2304 23.8868C32.1246 23.9455 32.0081 23.9823 31.8878 23.995C31.7675 24.0077 31.6459 23.9961 31.5302 23.9608C31.4144 23.9255 31.307 23.8673 31.2143 23.7896C31.1215 23.712 31.0454 23.6164 30.9903 23.5087C30.9353 23.4009 30.9025 23.2832 30.8939 23.1625C30.8853 23.0418 30.9011 22.9207 30.9404 22.8062C30.9796 22.6918 31.0415 22.5864 31.1223 22.4964C31.2031 22.4063 31.3012 22.3335 31.4107 22.2822C32.1594 21.9016 32.8449 21.4078 33.443 20.8182C34.3241 19.9372 34.9838 18.8599 35.3682 17.6746C35.7526 16.4894 35.8508 15.2299 35.6546 13.9994C35.4584 12.7689 34.9735 11.6024 34.2396 10.5954C33.5057 9.58849 32.5437 8.76979 31.4324 8.20639C31.3267 8.15296 31.2326 8.07924 31.1554 7.98944C31.0783 7.89964 31.0195 7.79551 30.9826 7.68301C30.9456 7.57051 30.9312 7.45183 30.9401 7.33376C30.9491 7.21568 30.9812 7.10052 31.0346 6.99484C31.088 6.88917 31.1617 6.79506 31.2515 6.71787C31.3413 6.64069 31.4454 6.58195 31.5579 6.54501C31.6704 6.50806 31.7891 6.49364 31.9071 6.50256C32.0252 6.51149 32.1404 6.54358 32.246 6.59701C33.6118 7.28894 34.7942 8.29471 35.6963 9.53188C36.5983 10.7691 37.1944 12.2024 37.4356 13.7144C37.6768 15.2265 37.5563 16.7742 37.084 18.2306C36.6116 19.6871 35.8009 21.0109 34.7182 22.0935ZM31.0298 19.567C30.4925 20.1055 29.8315 20.5478 29.1285 20.8555C28.9113 20.9423 28.6688 20.9412 28.4524 20.8526C28.236 20.7639 28.0625 20.5946 27.9685 20.3804C27.8746 20.1661 27.8676 19.9238 27.9491 19.7045C28.0305 19.4853 28.194 19.3062 28.405 19.2053C28.9074 18.9862 29.3653 18.6765 29.7558 18.2918C30.1567 17.8909 30.4747 17.4149 30.6917 16.8911C30.9087 16.3673 31.0203 15.8059 31.0203 15.2389C31.0203 14.6719 30.9087 14.1105 30.6917 13.5867C30.4747 13.0628 30.1567 12.5869 29.7558 12.186C29.3821 11.8134 28.9266 11.5105 28.4206 11.2893C28.2014 11.1935 28.0293 11.0146 27.9421 10.7919C27.8549 10.5692 27.8597 10.321 27.9555 10.1018C28.0513 9.88268 28.2302 9.71055 28.4529 9.62332C28.6755 9.53609 28.9238 9.5409 29.1429 9.63669C29.8458 9.94041 30.4858 10.3729 31.0298 10.9119C32.1774 12.0597 32.8221 13.6163 32.8221 15.2395C32.8221 16.8626 32.1774 18.4193 31.0298 19.567ZM27.881 16.4636C27.7135 16.631 27.5147 16.7638 27.296 16.8544C27.0772 16.9449 26.8428 16.9915 26.606 16.9914C26.3692 16.9914 26.1348 16.9447 25.9161 16.854C25.6974 16.7634 25.4986 16.6305 25.3313 16.463C25.1639 16.2956 25.0311 16.0968 24.9406 15.878C24.85 15.6592 24.8035 15.4248 24.8035 15.188C24.8036 14.9512 24.8503 14.7167 24.9409 14.498C25.0316 14.2793 25.1644 14.0805 25.3319 13.9132C25.6701 13.5749 26.1287 13.3849 26.607 13.3849C27.0853 13.3849 27.544 13.5749 27.8822 13.9132C28.2204 14.2514 28.4103 14.7101 28.4103 15.1884C28.4103 15.6667 28.2204 16.1254 27.8822 16.4636H27.881Z" fill="black"/>
</g>
<defs>
<clipPath id="clip0_0_1289">
<rect width="41" height="26" fill="white" transform="translate(0.5)"/>
</clipPath>
</defs>
</svg>
