<svg width="34" height="34" viewBox="0 0 34 34" fill="none" xmlns="http://www.w3.org/2000/svg">
<path d="M19.1247 25.5H5.66634V17H20.258C21.6747 15.3 23.7997 14.1667 26.208 14.1667C28.0497 14.1667 29.7497 14.875 31.1663 16.0083V8.5C31.1663 7.74855 30.8678 7.02788 30.3365 6.49653C29.8051 5.96518 29.0845 5.66666 28.333 5.66666H5.66634C4.91489 5.66666 4.19422 5.96518 3.66287 6.49653C3.13152 7.02788 2.83301 7.74855 2.83301 8.5V25.5C2.83301 26.2514 3.13152 26.9721 3.66287 27.5035C4.19422 28.0348 4.91489 28.3333 5.66634 28.3333H20.683C20.1163 27.4833 19.5497 26.4917 19.1247 25.5ZM5.66634 8.5H28.333V11.3333H5.66634V8.5ZM26.208 17C23.5163 17 21.2497 19.2667 21.2497 21.9583C21.2497 25.6417 26.208 31.1667 26.208 31.1667C26.208 31.1667 31.1663 25.6417 31.1663 21.9583C31.1663 19.2667 28.8997 17 26.208 17ZM26.208 23.8C25.2163 23.8 24.508 22.95 24.508 22.1C24.508 21.1083 25.358 20.4 26.208 20.4C27.058 20.4 27.908 21.25 27.908 22.1C28.0497 22.95 27.1997 23.8 26.208 23.8Z" fill="#7A7A7A"/>
</svg>
