<svg width="34" height="34" viewBox="0 0 34 34" fill="none" xmlns="http://www.w3.org/2000/svg">
<path fill-rule="evenodd" clip-rule="evenodd" d="M20.2935 5.3125H13.706C13.4971 6.33314 12.993 7.26995 12.2563 8.00661C11.5197 8.74327 10.5829 9.24735 9.56223 9.45625C9.56182 9.76319 9.56182 10.0701 9.56223 10.3771C10.5829 10.586 11.5197 11.0901 12.2563 11.8267C12.993 12.5634 13.4971 13.5002 13.706 14.5208H20.2935C20.5024 13.5002 21.0065 12.5634 21.7431 11.8267C22.4798 11.0901 23.4166 10.586 24.4372 10.3771C24.4375 10.0701 24.4375 9.76319 24.4372 9.45625C23.4166 9.24735 22.4798 8.74327 21.7431 8.00661C21.0065 7.26995 20.5024 6.33314 20.2935 5.3125ZM21.1506 3.19175C20.761 3.1875 20.3473 3.1875 19.9067 3.1875H14.0927C13.6536 3.1875 13.2385 3.1875 12.8503 3.19175C12.7729 3.18478 12.695 3.18621 12.618 3.196C11.9776 3.20733 11.4096 3.23425 10.9166 3.30083C10.0269 3.41983 9.22364 3.68333 8.57906 4.32792C7.93306 4.97392 7.66956 5.77717 7.55056 6.66542C7.48398 7.15983 7.45706 7.72792 7.44573 8.36825C7.43602 8.44485 7.4346 8.52227 7.44148 8.59917C7.43723 8.98875 7.43723 9.40383 7.43723 9.843V9.99033C7.43723 10.4295 7.43723 10.8446 7.44148 11.2342C7.43461 11.3111 7.43603 11.3885 7.44573 11.4651C7.45706 12.1068 7.48398 12.6735 7.55056 13.1665C7.66956 14.0562 7.93306 14.8594 8.57906 15.504C9.22364 16.15 10.0269 16.4135 10.9166 16.5325C11.4096 16.5991 11.9776 16.626 12.618 16.6373C12.695 16.6473 12.7729 16.6487 12.8503 16.6416C13.2385 16.6458 13.6536 16.6458 14.0927 16.6458H19.9067C20.3459 16.6458 20.761 16.6458 21.1506 16.6416C21.2275 16.6486 21.3049 16.6472 21.3815 16.6373C22.0232 16.626 22.5913 16.5991 23.0829 16.5325C23.9726 16.4135 24.7758 16.15 25.4204 15.504C26.0664 14.8594 26.3299 14.0562 26.4489 13.1665C26.516 12.6018 26.551 12.0338 26.5537 11.4651C26.5633 11.3885 26.5648 11.3111 26.558 11.2342C26.5622 10.8446 26.5622 10.4295 26.5622 9.99033V9.843C26.5622 9.40383 26.5622 8.98875 26.558 8.59917C26.565 8.52227 26.5636 8.44484 26.5537 8.36825C26.5508 7.79959 26.5158 7.23155 26.4489 6.66683C26.3299 5.77717 26.0664 4.97392 25.4218 4.32933C24.7758 3.68333 23.9726 3.41983 23.0843 3.30083C22.5191 3.23386 21.9506 3.19886 21.3815 3.196C21.3049 3.18626 21.2275 3.18484 21.1506 3.19175ZM22.5162 5.37483C22.6766 5.79866 22.9253 6.18356 23.2457 6.504C23.5662 6.82443 23.9511 7.0731 24.3749 7.2335C24.366 7.13884 24.3551 7.04438 24.3423 6.95017C24.2559 6.29567 24.1029 6.01517 23.9173 5.831C23.7331 5.64683 23.4541 5.49525 22.801 5.406C22.7068 5.3937 22.6123 5.3833 22.5176 5.37483H22.5162ZM24.3749 12.5998C23.9511 12.7602 23.5662 13.0089 23.2457 13.3293C22.9253 13.6498 22.6766 14.0347 22.5162 14.4585C22.6154 14.45 22.7103 14.4387 22.7996 14.4273C23.4541 14.3381 23.7346 14.1865 23.9187 14.0023C24.1029 13.8182 24.2559 13.5377 24.3437 12.8832C24.3551 12.7939 24.3664 12.699 24.3749 12.5998ZM11.4832 14.4585C11.3228 14.0347 11.0742 13.6498 10.7537 13.3293C10.4333 13.0089 10.0484 12.7602 9.62456 12.5998C9.63448 12.699 9.64439 12.7939 9.65714 12.8832C9.74498 13.5377 9.89656 13.8182 10.0821 14.0023C10.2663 14.1865 10.5454 14.3381 11.1985 14.4273C11.2891 14.4387 11.3841 14.45 11.4832 14.4585ZM9.62456 7.2335C10.0484 7.0731 10.4333 6.82443 10.7537 6.504C11.0742 6.18356 11.3228 5.79866 11.4832 5.37483C11.3841 5.38333 11.2891 5.39467 11.1999 5.40742C10.5454 5.49525 10.2649 5.64683 10.0807 5.83242C9.89656 6.01658 9.74498 6.29567 9.65573 6.94875L9.62456 7.2335ZM16.9997 9.5625C16.9058 9.5625 16.8157 9.59981 16.7493 9.66623C16.6829 9.73265 16.6456 9.82274 16.6456 9.91667C16.6456 10.0106 16.6829 10.1007 16.7493 10.1671C16.8157 10.2335 16.9058 10.2708 16.9997 10.2708C17.0937 10.2708 17.1837 10.2335 17.2502 10.1671C17.3166 10.1007 17.3539 10.0106 17.3539 9.91667C17.3539 9.82274 17.3166 9.73265 17.2502 9.66623C17.1837 9.59981 17.0937 9.5625 16.9997 9.5625ZM14.5206 9.91667C14.5206 9.25915 14.7818 8.62857 15.2467 8.16363C15.7116 7.6987 16.3422 7.4375 16.9997 7.4375C17.6572 7.4375 18.2878 7.6987 18.7528 8.16363C19.2177 8.62857 19.4789 9.25915 19.4789 9.91667C19.4789 10.5742 19.2177 11.2048 18.7528 11.6697C18.2878 12.1346 17.6572 12.3958 16.9997 12.3958C16.3422 12.3958 15.7116 12.1346 15.2467 11.6697C14.7818 11.2048 14.5206 10.5742 14.5206 9.91667ZM12.3021 20.468C14.9456 19.9566 17.7746 20.0713 20.0654 21.437C20.3856 21.6283 20.6887 21.8677 20.9508 22.1623C21.4835 22.7616 21.7583 23.5039 21.7711 24.2491C22.0416 24.0748 22.3136 23.8808 22.5885 23.6725L25.1498 21.7388C25.7911 21.2675 26.5661 21.0134 27.3619 21.0134C28.1578 21.0134 28.9328 21.2675 29.5741 21.7388C30.7584 22.6313 31.2316 24.2363 30.383 25.5963C29.7809 26.5611 28.8728 27.897 27.9506 28.7527C27.0156 29.6168 25.6881 30.345 24.6837 30.8295C23.4626 31.4188 22.1451 31.7447 20.863 31.9515C18.2421 32.3765 15.5165 32.3113 12.9268 31.7773C11.5913 31.5024 10.2315 31.3634 8.86806 31.3622H5.66639C5.3846 31.3622 5.11435 31.2502 4.91509 31.051C4.71583 30.8517 4.60389 30.5815 4.60389 30.2997C4.60389 30.0179 4.71583 29.7476 4.91509 29.5484C5.11435 29.3491 5.3846 29.2372 5.66639 29.2372H8.86806C10.3726 29.2372 11.8926 29.3944 13.3561 29.6962C15.7165 30.1805 18.145 30.2338 20.5244 29.8534C21.6974 29.6636 22.7939 29.3817 23.7601 28.9156C24.7276 28.4481 25.8156 27.8333 26.5056 27.1943C27.204 26.5469 27.9846 25.4263 28.581 24.4715C28.7609 24.1825 28.7354 23.7674 28.2948 23.4345C27.7706 23.0378 26.9532 23.0378 26.4305 23.4345L23.8706 25.3683C22.8477 26.1403 21.5897 26.9663 20.03 27.2156C19.8666 27.2415 19.7027 27.2641 19.5384 27.2836C18.5458 27.3981 17.5438 27.4076 16.5492 27.3119C16.4078 27.3021 16.2698 27.2642 16.1433 27.2003C16.0169 27.1364 15.9044 27.0478 15.8127 26.9398C15.7209 26.8318 15.6517 26.7065 15.6091 26.5713C15.5665 26.4362 15.5514 26.2939 15.5646 26.1528C15.5778 26.0116 15.6192 25.8746 15.6862 25.7497C15.7531 25.6248 15.8444 25.5146 15.9547 25.4255C16.0649 25.3365 16.1918 25.2703 16.328 25.2311C16.4642 25.1918 16.6068 25.1801 16.7476 25.1968C17.5334 25.2732 18.325 25.2717 19.1106 25.1926L19.1531 25.1883C19.2852 25.1063 19.3976 24.996 19.4819 24.8653C19.5663 24.7346 19.6206 24.5868 19.6409 24.4326C19.6613 24.2783 19.6471 24.1215 19.5995 23.9734C19.5519 23.8253 19.472 23.6896 19.3656 23.5762C19.2527 23.4519 19.1213 23.3458 18.976 23.2617C17.3029 22.2629 15.0674 22.0972 12.7058 22.5533C10.3991 23.0174 8.21239 23.9504 6.28123 25.2946C6.16737 25.3753 6.03873 25.4329 5.90264 25.4639C5.76655 25.4949 5.62569 25.4988 5.48808 25.4754C5.35048 25.452 5.21884 25.4017 5.10068 25.3274C4.98251 25.2531 4.88013 25.1563 4.79939 25.0424C4.71865 24.9286 4.66113 24.7999 4.6301 24.6638C4.59908 24.5277 4.59516 24.3869 4.61858 24.2493C4.64199 24.1117 4.69228 23.98 4.76658 23.8619C4.84087 23.7437 4.9377 23.6413 5.05156 23.5606C7.22989 22.0419 9.6982 20.9891 12.3021 20.468Z" fill="#7A7A7A"/>
</svg>
