<svg width="76" height="76" viewBox="0 0 76 76" fill="none" xmlns="http://www.w3.org/2000/svg">
<path fill-rule="evenodd" clip-rule="evenodd" d="M75.9581 37.7517C75.9581 58.6014 59.056 75.5035 38.2063 75.5035C17.3567 75.5035 0.45459 58.6014 0.45459 37.7517C0.45459 16.9021 17.3567 0 38.2063 0C59.056 0 75.9581 16.9021 75.9581 37.7517ZM41.824 26.1678C35.3384 28.9692 16.6381 36.9249 16.6381 36.9249C12.2063 38.7178 14.8004 40.3986 14.8004 40.3986C14.8004 40.3986 18.5837 41.7433 21.8266 42.7516C25.0694 43.7601 26.799 42.6397 26.799 42.6397C26.799 42.6397 34.3656 37.4852 42.0402 31.9945C47.4449 28.1848 46.1478 31.3222 44.8506 32.6669C42.0402 35.5803 37.3922 40.1745 33.5007 43.8723C31.7713 45.4411 32.636 46.7856 33.3927 47.4579C35.5934 49.3882 40.7764 52.8988 43.1296 54.4927C43.7816 54.9343 44.2164 55.2288 44.3102 55.3017C44.8506 55.75 47.8774 57.7669 49.7149 57.3187C51.5525 56.8705 51.7687 54.2932 51.7687 54.2932C51.7687 54.2932 53.1739 45.1049 54.4711 36.7008C54.7113 35.0507 54.9516 33.4353 55.1756 31.929C55.7579 28.0137 56.2305 24.8355 56.3087 23.7026C56.633 19.8928 52.7415 21.4615 52.7415 21.4615C52.7415 21.4615 44.3102 25.0473 41.824 26.1678Z" fill="#34AADF"/>
</svg>
