<svg width="76" height="76" viewBox="0 0 76 76" fill="none" xmlns="http://www.w3.org/2000/svg">
<g clip-path="url(#clip0_0_2148)">
<mask id="mask0_0_2148" style="mask-type:luminance" maskUnits="userSpaceOnUse" x="0" y="0" width="76" height="76">
<path d="M75.624 0H0.376465V76H75.624V0Z" fill="white"/>
</mask>
<g mask="url(#mask0_0_2148)">
<path d="M0.376465 36.48C0.376465 19.2832 0.376465 10.6848 5.66594 5.34237C10.9554 0 19.4687 0 36.4953 0H39.5052C56.5317 0 65.045 0 70.3345 5.34237C75.624 10.6848 75.624 19.2832 75.624 36.48V39.52C75.624 56.7168 75.624 65.3152 70.3345 70.6577C65.045 76 56.5317 76 39.5052 76H36.4953C19.4687 76 10.9554 76 5.66594 70.6577C0.376465 65.3152 0.376465 56.7168 0.376465 39.52V36.48Z" fill="#0077FF"/>
<path d="M40.4146 54.7519C23.2644 54.7519 13.4823 42.8769 13.0747 23.1169H21.6655C21.9477 37.6202 28.2809 43.7636 33.2973 45.0303V23.1169H41.3867V35.6252C46.3405 35.0869 51.5445 29.3869 53.3003 23.1169H61.3896C60.0414 30.8436 54.3979 36.5436 50.3847 38.8869C54.3979 40.7869 60.8256 45.7586 63.2711 54.7519H54.3666C52.454 48.7352 47.6887 44.0803 41.3867 43.4469V54.7519H40.4146Z" fill="white"/>
</g>
</g>
<defs>
<clipPath id="clip0_0_2148">
<rect width="76" height="76" fill="white"/>
</clipPath>
</defs>
</svg>
