<svg width="77" height="76" viewBox="0 0 77 76" fill="none" xmlns="http://www.w3.org/2000/svg">
<path d="M0.412598 76L5.86542 55.7431C1.46786 47.852 0.0707048 38.6438 1.93035 29.8081C3.78999 20.9724 8.78169 13.102 15.9895 7.64111C23.1972 2.18019 32.1376 -0.504941 41.17 0.0784498C50.2023 0.66184 58.7209 4.47462 65.1624 10.8171C71.6039 17.1596 75.5363 25.6064 76.238 34.6075C76.9397 43.6086 74.3636 52.5603 68.9825 59.8198C63.6014 67.0793 55.7762 72.1597 46.9428 74.1288C38.1094 76.0979 28.8604 74.8235 20.8929 70.5396L0.412598 76ZM21.8804 62.9594L23.147 63.7088C28.918 67.1207 35.6584 68.5326 42.3179 67.7245C48.9774 66.9164 55.1818 63.9336 59.9643 59.2411C64.7468 54.5485 67.8387 48.4097 68.7583 41.7814C69.6778 35.153 68.3733 28.4075 65.048 22.5958C61.7227 16.7842 56.5635 12.233 50.3742 9.6515C44.185 7.06997 37.3135 6.60312 30.8304 8.3237C24.3474 10.0443 18.6171 13.8556 14.5325 19.1638C10.4479 24.472 8.23839 30.9788 8.24835 37.6703C8.24292 43.2187 9.78128 48.6597 12.6922 53.3876L13.4865 54.6938L10.4381 66L21.8804 62.9594Z" fill="#00D95F"/>
<path fill-rule="evenodd" clip-rule="evenodd" d="M52.6217 42.8718C51.8792 42.2744 51.0098 41.854 50.0798 41.6425C49.1497 41.431 48.1835 41.434 47.2548 41.6512C45.8594 42.2294 44.9577 44.4136 44.0561 45.5056C43.8659 45.7674 43.5866 45.951 43.2704 46.022C42.9542 46.093 42.6229 46.0464 42.3387 45.8911C37.23 43.8953 32.9479 40.2353 30.1879 35.5057C29.9525 35.2105 29.841 34.8358 29.8771 34.4603C29.9131 34.0849 30.0938 33.738 30.3811 33.4928C31.3867 32.4998 32.1251 31.2699 32.5279 29.9168C32.6173 28.4243 32.2745 26.9377 31.5403 25.6342C30.9728 23.8067 29.8926 22.1794 28.4275 20.9447C27.6718 20.6057 26.834 20.492 26.015 20.6174C25.196 20.7428 24.4309 21.1019 23.8119 21.6513C22.7374 22.576 21.8845 23.7294 21.3161 25.0264C20.7476 26.3235 20.4781 27.7312 20.5273 29.1459C20.5307 29.9404 20.6316 30.7314 20.8279 31.5014C21.3264 33.3513 22.093 35.1187 23.1035 36.7476C23.8325 37.9954 24.628 39.2034 25.4864 40.3665C28.2763 44.1865 31.7831 47.43 35.8124 49.9167C37.8344 51.1804 39.9954 52.2079 42.2528 52.9788C44.5977 54.0391 47.1868 54.4461 49.745 54.1566C51.2026 53.9365 52.5837 53.3625 53.7666 52.485C54.9495 51.6075 55.8981 50.4535 56.5289 49.1245C56.8995 48.3216 57.012 47.424 56.8509 46.5549C56.4645 44.7776 54.0815 43.7283 52.6217 42.8718Z" fill="#00D95F"/>
</svg>
