<svg width="737" height="440" viewBox="0 0 737 440" fill="none" xmlns="http://www.w3.org/2000/svg">
<path d="M150.4 304.4H8V275.6L146.4 92H188V271.6H224V304.4H188V372H150.4V304.4ZM150.4 271.6V136L48 271.6H150.4ZM368.141 376C354.541 376 341.607 373.733 329.341 369.2C317.341 364.667 306.807 356.933 297.741 346C288.674 334.8 281.474 320 276.141 301.6C270.807 282.933 268.141 259.733 268.141 232V224C268.141 198.133 270.807 176.533 276.141 159.2C281.474 141.867 288.674 128 297.741 117.6C306.807 106.933 317.341 99.3333 329.341 94.8C341.607 90.2667 354.541 88 368.141 88C381.741 88 394.541 90.2667 406.541 94.8C418.807 99.3333 429.474 106.933 438.541 117.6C447.607 128 454.807 141.867 460.141 159.2C465.474 176.533 468.141 198.133 468.141 224V232C468.141 259.733 465.474 282.933 460.141 301.6C454.807 320 447.607 334.8 438.541 346C429.474 356.933 418.807 364.667 406.541 369.2C394.541 373.733 381.741 376 368.141 376ZM368.141 343.2C376.407 343.2 384.274 341.733 391.741 338.8C399.474 335.6 406.141 330 411.741 322C417.607 313.733 422.141 302.4 425.341 288C428.807 273.6 430.541 254.933 430.541 232V224C430.541 203.2 428.807 186.133 425.341 172.8C422.141 159.467 417.607 148.933 411.741 141.2C406.141 133.467 399.474 128.133 391.741 125.2C384.274 122.267 376.407 120.8 368.141 120.8C359.607 120.8 351.607 122.267 344.141 125.2C336.674 128.133 330.007 133.467 324.141 141.2C318.541 148.933 314.007 159.467 310.541 172.8C307.341 186.133 305.741 203.2 305.741 224V232C305.741 254.933 307.341 273.6 310.541 288C314.007 302.4 318.541 313.733 324.141 322C330.007 330 336.674 335.6 344.141 338.8C351.607 341.733 359.607 343.2 368.141 343.2ZM642.588 304.4H500.188V275.6L638.588 92H680.188V271.6H716.188V304.4H680.188V372H642.588V304.4ZM642.588 271.6V136L540.188 271.6H642.588Z" fill="black"/>
<path d="M431.948 93.515L411.939 189.238L408.52 205.603C406.957 205.368 405.416 205.135 403.905 204.916L406.511 189.156L415.192 136.63C415.333 136.772 415.492 136.932 415.677 137.094C416.255 137.627 417.054 138.168 417.728 138.379C417.376 137.768 416.791 137.066 416.331 136.475C415.867 135.888 415.514 135.436 415.514 135.436C415.477 135.394 415.449 135.348 415.412 135.305L416.06 131.388C416.215 131.527 416.4 131.689 416.611 131.857C417.193 132.323 417.96 132.818 418.613 133.014C418.282 132.413 417.708 131.744 417.232 131.2C416.756 130.661 416.37 130.251 416.37 130.251C416.332 130.218 416.304 130.176 416.266 130.138L422.759 90.863C422.901 90.0032 423.349 89.6458 423.422 89.6191L431.613 91.7966C431.798 91.8837 432.143 92.5921 431.948 93.515Z" fill="#C69C6D"/>
<path d="M470.734 230.816C469.705 229.2 468.347 227.733 466.684 226.477C453.568 216.587 385.299 208.142 374.537 207.679L374.475 207.675C374.259 207.657 352.641 206.042 329.372 205.879C290.874 205.612 277.656 209.356 273.344 212.543C271.495 213.912 269.884 215.505 268.555 217.216C266.076 221.493 265.278 226.185 266.715 229.926C268.518 234.635 273.429 236.882 280.541 236.254C302.26 234.348 324.681 234.112 348.691 235.611C371.703 237.047 396.171 240.072 422.882 244.739L428.8 245.774C436.541 247.13 444.546 248.533 452.429 249.828C461.009 251.236 466.481 251.533 470.066 243.794C472.109 239.388 472.271 234.807 470.734 230.816ZM280.09 221.752C280.024 221.748 279.958 221.74 279.897 221.727C279.489 221.662 279.192 221.457 278.991 221.188C278.313 220.268 278.796 218.57 280.283 218.662C282.274 218.787 282.077 221.876 280.09 221.752ZM452.958 230.624C454.441 230.716 454.71 232.448 453.931 233.281C453.684 233.545 453.332 233.718 452.876 233.716C452.84 233.718 452.805 233.716 452.765 233.714C450.774 233.589 450.971 230.499 452.958 230.624ZM457.925 226.795C459.413 226.888 459.68 228.637 458.889 229.465C458.656 229.707 458.332 229.869 457.923 229.888C457.861 229.888 457.799 229.889 457.732 229.885C455.742 229.76 455.934 226.67 457.925 226.795ZM458.423 233.03C459.91 233.123 460.178 234.872 459.382 235.7C459.158 235.938 458.838 236.1 458.434 236.119C458.367 236.124 458.3 236.124 458.23 236.12C456.239 235.995 456.432 232.905 458.423 233.03Z" fill="#F48024"/>
<path d="M470.734 230.816C469.705 229.2 468.347 227.733 466.684 226.477C465.478 225.564 463.802 224.666 461.743 223.785C461.009 223.468 460.226 223.158 459.399 222.849C437.397 214.598 383.956 208.085 374.538 207.679L374.476 207.675C374.26 207.657 352.641 206.042 329.372 205.879C290.874 205.612 277.656 209.356 273.345 212.544C271.495 213.913 269.885 215.505 268.555 217.217C266.429 220.886 265.539 224.859 266.238 228.275C268.751 231.047 273.038 232.289 278.678 231.812C300.918 229.939 323.882 229.737 348.479 231.272C372.051 232.744 397.116 235.806 424.48 240.514L430.543 241.557C438.475 242.925 446.678 244.341 454.75 245.647C461.652 246.765 466.588 247.193 470.164 243.583C472.114 239.242 472.248 234.743 470.734 230.816ZM280.091 221.752C280.024 221.748 279.958 221.74 279.897 221.727C279.489 221.662 279.192 221.457 278.991 221.188C278.313 220.268 278.796 218.57 280.284 218.662C282.275 218.786 282.077 221.876 280.091 221.752ZM453.931 233.281C453.684 233.545 453.332 233.718 452.876 233.716C452.84 233.718 452.805 233.716 452.765 233.713C450.774 233.589 450.972 230.499 452.958 230.623C454.441 230.716 454.71 232.448 453.931 233.281ZM456.42 228.907C456.256 228.418 456.322 227.846 456.606 227.417C456.865 227.025 457.307 226.756 457.925 226.795C459.413 226.887 459.681 228.637 458.889 229.465C458.657 229.707 458.332 229.869 457.923 229.888C457.861 229.888 457.799 229.888 457.732 229.885C457.022 229.84 456.591 229.423 456.42 228.907ZM459.382 235.7C459.158 235.938 458.838 236.1 458.434 236.119C458.367 236.124 458.301 236.124 458.23 236.12C456.239 235.996 456.432 232.906 458.423 233.03C459.91 233.122 460.178 234.872 459.382 235.7Z" fill="#F48024"/>
<path d="M470.164 243.583C470.133 243.652 470.097 243.725 470.066 243.794C466.481 251.534 461.009 251.236 452.428 249.828C444.545 248.534 436.541 247.13 428.8 245.774L422.882 244.74C396.171 240.072 371.703 237.047 348.69 235.611C324.681 234.112 302.26 234.348 280.541 236.254C273.429 236.883 268.518 234.635 266.715 229.927C266.509 229.395 266.353 228.845 266.238 228.275C268.75 231.046 273.038 232.289 278.678 231.812C300.917 229.939 323.881 229.737 348.478 231.272C372.051 232.743 397.115 235.806 424.479 240.514L430.543 241.557C438.474 242.925 446.677 244.341 454.75 245.647C461.651 246.765 466.588 247.193 470.164 243.583Z" fill="#D6421F"/>
<path d="M470.734 230.816C469.705 229.2 468.347 227.733 466.684 226.477C453.568 216.587 385.299 208.142 374.537 207.679L374.475 207.675C374.259 207.657 352.641 206.042 329.372 205.879C290.874 205.612 277.656 209.356 273.344 212.543C271.495 213.912 269.884 215.505 268.554 217.216C270.081 214.564 272.253 212.067 274.936 210.05C279.185 206.854 292.214 203.098 330.143 203.334C353.063 203.475 374.363 205.07 374.575 205.088L374.637 205.092C385.24 205.546 452.489 213.926 465.398 223.804C467.906 225.725 469.701 228.137 470.734 230.816Z" fill="white"/>
<path d="M458.609 99.1232L456.156 108.387C456.056 108.501 455.96 108.619 455.86 108.732C455.86 108.732 455.459 109.186 454.944 109.778C454.433 110.371 453.799 111.085 453.414 111.712C454.114 111.49 454.95 110.949 455.573 110.425C455.592 110.404 455.61 110.387 455.634 110.371L442.601 159.639L433.397 194.424L433.392 194.424C433.392 194.424 431.778 194.793 430.998 195.497C431.647 195.689 432.547 195.607 433.106 195.523L429.487 209.212C427.954 208.912 426.413 208.625 424.866 208.338L435.151 161.558L449.565 95.9884C449.738 95.2061 450.184 94.8126 450.292 94.784L458.363 97.3884C458.543 97.4839 458.852 98.2077 458.609 99.1232Z" fill="#C69C6D"/>
<path d="M469.783 308.464C470.429 302.943 468.11 300.201 466.833 299.137C464.7 300.657 461.138 302.482 455.686 303.281C453.906 303.542 451.925 303.693 449.727 303.689C449.727 303.689 452.523 303.053 456.117 301.491C459.67 299.953 464.006 297.511 467.174 293.894C468.729 291.425 470.278 286.341 464.561 278.814L463.656 277.618L464.686 276.526C464.729 276.48 469.325 271.498 469.001 265.052C468.809 261.242 466.935 257.61 463.444 254.246L463.452 255.82C463.452 255.82 463.473 259.468 462.455 261.497C461.411 259.482 461.387 255.833 461.387 255.833L461.378 254.122C460.296 254.209 459.197 254.198 458.094 254.129C457.299 254.08 456.502 253.999 455.71 253.901C454.413 253.74 453.119 253.527 451.856 253.319C450.917 253.163 449.978 253.011 449.04 252.855C442.053 251.688 435.017 250.455 428.188 249.258L424.483 248.61C424.319 249.047 424.18 249.491 424.068 249.945C424.068 249.945 423.84 250.755 423.592 251.816C423.326 252.877 423.098 254.201 422.713 255.258C422.07 254.336 421.769 252.837 421.797 251.612C421.804 250.996 421.869 250.451 421.938 250.06C422.002 249.67 422.066 249.435 422.066 249.435C422.17 249.038 422.292 248.642 422.423 248.247L422.274 248.225C417.018 247.307 411.851 246.453 406.76 245.661C406.446 245.717 406.139 245.808 405.843 245.936C405.843 245.936 405.693 245.998 405.45 246.12C405.212 246.242 404.886 246.421 404.542 246.692C403.835 247.215 403.124 248.106 402.529 248.969C402.32 248.486 402.267 247.844 402.405 247.206C402.537 246.567 402.852 245.935 403.237 245.441C403.314 245.339 403.4 245.252 403.481 245.159C382.302 241.962 362.53 239.873 343.728 238.872C343.75 238.949 343.767 239.025 343.779 239.11C343.893 239.698 343.828 240.465 343.391 240.996C342.807 240.636 342.411 240.168 342.11 239.799C341.819 239.426 341.642 239.128 341.642 239.128C341.571 238.999 341.485 238.879 341.404 238.754C326.232 238.015 311.681 237.984 297.516 238.656C297.561 238.707 297.607 238.754 297.652 238.81C298.041 239.265 298.381 239.849 298.551 240.462C298.73 241.072 298.735 241.701 298.585 242.188C297.893 241.418 297.141 240.609 296.397 240.106C296.037 239.849 295.708 239.651 295.463 239.525C295.219 239.39 295.068 239.327 295.068 239.327C294.514 239.044 293.911 238.905 293.314 238.876C291.54 238.978 289.764 239.094 287.997 239.218C288.026 239.255 288.054 239.293 288.083 239.334C288.083 239.334 288.27 239.603 288.484 240.086C288.697 240.569 288.895 241.299 288.928 242.064C289.011 243.638 288.468 245.314 287.776 246.392C287.46 245.132 287.444 243.469 287.136 242.302C286.996 241.704 286.807 241.257 286.644 240.95C286.477 240.639 286.355 240.463 286.355 240.463C286.064 240.015 285.688 239.654 285.277 239.416C284.427 239.482 283.576 239.549 282.73 239.625C282.102 239.674 281.478 239.724 280.854 239.778C279.138 239.932 277.512 239.928 275.993 239.776C274.658 239.653 273.406 239.41 272.235 239.063C270.607 240.22 266.292 243.752 265.368 249.261C264.535 254.226 266.589 259.654 271.477 265.405L272.249 266.318C274.819 269.097 278.932 272.704 280.799 274.31C281.409 274.835 281.78 275.146 281.78 275.146C281.395 275.069 281.011 274.974 280.627 274.866C276.307 273.652 272.407 270.67 269.883 268.368C267.587 268.726 257.049 270.926 256.558 281.629C256.158 290.316 261.941 293.296 265.124 294.275C269.052 295.385 274.212 294.869 277.732 294.269C280.115 293.864 281.747 293.425 281.747 293.425C280.583 294.239 279.429 294.911 278.304 295.47C274.312 297.45 270.654 297.98 268.08 298.032C267.355 299.36 265.767 302.789 266.818 305.752C267.557 307.828 269.533 309.401 272.705 310.418L275.602 311.353L273.356 313.406C272.899 313.83 262.156 323.932 270.67 333.579C273.472 336.754 277.042 338.479 281.263 338.73C282.411 338.797 283.544 338.748 284.633 338.621C285.173 338.562 285.697 338.479 286.213 338.383C290.576 337.565 294.009 335.666 294.601 335.131L298.273 331.531L297.587 336.638C297.557 336.906 296.905 343.579 306.548 346.574C314.029 348.903 321.28 345.052 324.656 342.799C330.674 338.464 332.453 329.494 332.453 329.494C333.345 335.51 331.4 339.9 329.577 342.556C329.902 343.888 332.104 351.134 341.439 351.956C351.655 352.859 355.195 346.973 355.343 346.726L357.955 342.227L358.635 347.37C358.695 347.759 359.405 351.375 364.662 351.929C369.544 352.438 370.36 348.394 370.477 347.581L371.341 341.546L373.84 347.091C373.973 347.379 377.319 354.324 387.443 353.657C397.922 352.973 402.534 344.761 402.579 344.675L404.02 342.039L405.625 344.581C405.686 344.67 407.238 347 410.311 347.542C412.862 347.989 415.772 347.085 418.965 344.851C418.3 342.08 417.965 337.795 419.857 332.622C419.857 332.622 418.993 343.616 425.973 349.162C428.236 350.89 431.616 352.324 436.303 351.566C445.673 350.05 444.145 338.526 444.079 338.039L443.428 333.478L446.301 335.877L446.87 336.351L446.962 336.428C447.367 336.763 457.022 344.598 465.285 337.306C467.597 335.27 468.573 333.115 468.275 330.725C467.686 326.027 462.267 321.687 460.936 321.005L456.595 318.771L461.359 317.704C461.659 317.635 468.913 315.868 469.783 308.464ZM294.672 257.508C294.545 258.196 294.308 259.076 293.643 259.939C293.301 260.383 292.805 260.795 292.244 261.061C291.682 261.332 291.032 261.509 290.308 261.472C289.596 261.45 288.829 261.167 288.268 260.644C287.707 260.118 287.418 259.426 287.34 258.818C287.183 257.585 287.679 256.597 288.146 255.993C288.627 255.38 289.101 255.033 289.422 254.796C289.746 254.564 289.935 254.456 289.935 254.456C289.935 254.456 289.851 254.663 289.699 255.039C289.552 255.407 289.324 255.938 289.183 256.554C289.116 256.86 289.069 257.185 289.089 257.501C289.1 257.812 289.169 258.135 289.286 258.39C289.407 258.651 289.569 258.829 289.744 258.933C289.916 259.028 290.11 259.098 290.393 259.116C290.671 259.137 290.997 259.1 291.304 259.008C291.615 258.922 291.893 258.797 292.148 258.622C292.704 258.232 293.173 257.671 293.547 257.146C293.926 256.62 294.226 256.146 294.441 255.828C294.656 255.504 294.786 255.326 294.786 255.326C294.786 255.326 294.8 255.531 294.804 255.899C294.798 256.271 294.791 256.815 294.672 257.508ZM296.687 273.011C294.692 272.887 294.889 269.797 296.88 269.921C298.871 270.045 298.673 273.136 296.687 273.011ZM307.529 315.216C306.334 315.838 304.808 316.208 303.143 315.984C302.313 315.857 301.408 315.521 300.723 314.845C300.034 314.172 299.703 313.301 299.618 312.538C299.431 310.979 300.057 309.689 300.652 308.889C301.266 308.063 301.869 307.56 302.272 307.213C302.684 306.87 302.92 306.695 302.92 306.695C302.92 306.695 302.788 306.961 302.559 307.443C302.33 307.925 301.967 308.612 301.694 309.45C301.557 309.862 301.444 310.329 301.416 310.775C301.383 311.23 301.437 311.716 301.57 312.145C301.711 312.58 301.946 312.94 302.233 313.166C302.515 313.396 302.926 313.555 303.448 313.645C303.97 313.731 304.551 313.731 305.093 313.699C305.641 313.662 306.175 313.549 306.684 313.413C307.703 313.135 308.596 312.668 309.318 312.19C310.035 311.707 310.572 311.191 310.915 310.801C311.105 310.609 311.217 310.443 311.312 310.334C311.403 310.224 311.451 310.165 311.451 310.165C311.451 310.165 311.438 310.235 311.408 310.371C311.373 310.501 311.342 310.708 311.252 310.955C311.096 311.464 310.785 312.189 310.199 312.976C309.606 313.751 308.737 314.609 307.529 315.216ZM310.027 329.093C308.031 328.968 308.229 325.878 310.22 326.002C312.211 326.127 312.013 329.216 310.027 329.093ZM314.147 334.078C312.152 333.954 312.349 330.864 314.34 330.988C316.331 331.112 316.134 334.202 314.147 334.078ZM318.374 327.841C316.383 327.717 316.58 324.627 318.567 324.751C320.558 324.875 320.365 327.965 318.374 327.841ZM326.857 290.915C322.213 290.625 318.682 286.624 318.972 281.981C319.262 277.341 323.262 273.811 327.906 274.101C332.546 274.39 336.076 278.391 335.787 283.03C335.497 287.674 331.496 291.204 326.857 290.915ZM354.205 262.491C354.031 261.949 353.975 261.426 353.982 260.962C354 260.032 354.265 259.34 354.478 258.896C354.696 258.453 354.865 258.247 354.865 258.247C354.865 258.247 354.83 258.524 354.836 258.994C354.838 259.46 354.903 260.124 355.152 260.818C355.405 261.511 355.845 262.204 356.503 262.675C357.15 263.163 357.976 263.423 358.708 263.335C359.467 263.25 360.206 262.835 360.605 262.275C361.034 261.708 361.162 260.874 361.137 260.132C361.122 259.387 361.02 258.738 360.964 258.291C360.904 257.836 360.871 257.585 360.871 257.585C360.871 257.585 361.028 257.768 361.289 258.121C361.546 258.482 361.93 259.003 362.266 259.79C362.432 260.182 362.59 260.648 362.652 261.202C362.703 261.604 362.692 262.055 362.592 262.519C362.814 262.807 363.088 263.09 363.432 263.333C363.789 263.581 364.205 263.793 364.656 263.897C365.097 264.004 365.583 264.013 366.072 263.919C367.04 263.74 368.043 263.151 368.708 262.298C369.401 261.419 369.781 260.304 369.906 259.226C370.035 258.153 369.897 257.098 369.686 256.212C369.471 255.321 369.185 254.594 368.977 254.094C368.751 253.588 368.632 253.306 368.632 253.306C368.632 253.306 368.869 253.484 369.262 253.859C369.651 254.233 370.204 254.813 370.735 255.675C371.262 256.532 371.779 257.694 371.897 259.133C372.009 260.545 371.712 262.246 370.621 263.684C369.511 265.131 367.819 265.898 366.236 265.906C365.447 265.905 364.692 265.729 364.052 265.393C363.421 265.065 362.944 264.619 362.591 264.162C362.44 263.958 362.315 263.755 362.208 263.558C361.604 264.641 360.448 265.482 359.054 265.67C358.245 265.779 357.435 265.631 356.767 265.328C356.089 265.033 355.536 264.586 355.106 264.094C354.681 263.598 354.38 263.038 354.205 262.491ZM380.358 308.05C378.651 309.055 376.531 309.362 374.391 308.922C371.661 308.357 369.432 306.867 368.032 304.803C366.697 306.386 364.864 307.645 362.143 308.056C361.424 308.162 360.712 308.192 360.033 308.15C356.889 307.954 354.3 306.21 353.276 303.447C351.872 299.664 354.339 296.281 355.526 294.654C356.175 293.768 357.42 293.571 358.31 294.22C359.196 294.865 359.392 296.114 358.743 296.999C357.304 298.97 356.459 300.588 357.009 302.067C357.673 303.855 359.767 304.384 361.556 304.119C363.891 303.769 365.226 302.545 366.656 299.448C367.035 298.629 367.91 298.165 368.796 298.318C369.682 298.467 370.359 299.196 370.445 300.088C370.682 302.54 372.547 304.473 375.198 305.02C376.357 305.26 377.497 305.114 378.339 304.618C380.473 303.359 379.513 300.428 378.328 298.191C377.817 297.219 378.189 296.015 379.161 295.5C380.132 294.989 381.336 295.356 381.847 296.332C384.586 301.507 384.029 305.89 380.358 308.05ZM410.611 296.142C405.967 295.853 402.441 291.852 402.731 287.208C403.02 282.569 407.017 279.038 411.66 279.328C416.304 279.618 419.83 283.618 419.541 288.258C419.251 292.901 415.255 296.432 410.611 296.142ZM438.331 325.45C438.099 326.048 437.642 326.692 436.831 327.054C436.43 327.228 435.943 327.3 435.511 327.251C435.067 327.201 434.677 327.053 434.351 326.877C433.7 326.518 433.308 326.13 432.935 325.791C432.563 325.436 432.212 325.086 431.888 324.738C431.24 324.042 430.697 323.37 430.26 322.784C429.389 321.617 428.948 320.792 428.948 320.792C428.948 320.792 429.755 321.153 430.979 321.85C431.595 322.198 432.312 322.633 433.087 323.147C433.474 323.406 433.878 323.683 434.289 323.979C434.704 324.284 435.123 324.612 435.431 324.777C435.761 324.958 435.899 324.957 436.019 324.947C436.157 324.938 436.383 324.793 436.549 324.559C436.727 324.331 436.843 324.037 436.885 323.778C436.93 323.488 436.906 323.159 436.85 322.858C436.737 322.244 436.51 321.703 436.365 321.326C436.207 320.944 436.123 320.73 436.123 320.73C436.123 320.73 436.328 320.858 436.666 321.114C437 321.379 437.486 321.75 437.946 322.417C438.173 322.75 438.382 323.162 438.496 323.683C438.602 324.235 438.564 324.844 438.331 325.45ZM439.987 296.434C437.996 296.31 438.194 293.22 440.18 293.344C442.171 293.468 441.978 296.558 439.987 296.434ZM450.953 273.751C450.853 273.722 450.758 273.681 450.667 273.64C450.219 273.434 449.872 273.173 449.583 272.912C449.293 272.645 449.066 272.379 448.856 272.126C448.65 271.874 448.454 271.614 448.275 271.354C447.564 270.321 447.097 269.291 446.811 268.409C446.516 267.526 446.402 266.784 446.341 266.279C446.313 266.024 446.303 265.829 446.298 265.691C446.293 265.558 446.293 265.487 446.293 265.487C446.293 265.487 446.429 265.717 446.682 266.131C446.936 266.537 447.307 267.123 447.819 267.793C448.327 268.472 448.97 269.234 449.746 270.01C449.938 270.203 450.139 270.398 450.352 270.593C450.566 270.788 450.776 270.978 450.979 271.132C451.178 271.282 451.374 271.41 451.538 271.473C451.707 271.541 451.834 271.562 451.942 271.547C451.999 271.546 452.062 271.533 452.13 271.51C452.338 271.439 452.579 271.276 452.748 271.052C452.973 270.778 453.134 270.336 453.203 269.871C453.277 269.401 453.269 268.882 453.241 268.402C453.234 268.304 453.227 268.211 453.215 268.117C453.176 267.742 453.119 267.384 453.047 267.051C452.868 266.225 452.617 265.562 452.415 265.107C452.212 264.655 452.077 264.408 452.077 264.408C452.077 264.408 452.325 264.556 452.716 264.895C452.956 265.1 453.244 265.384 453.54 265.757C453.741 266.005 453.949 266.293 454.146 266.624C454.395 267.038 454.626 267.518 454.818 268.066C455.006 268.614 455.163 269.223 455.193 269.933C455.225 270.636 455.129 271.458 454.654 272.262C454.416 272.659 454.101 273.016 453.702 273.306C453.307 273.596 452.81 273.817 452.252 273.889C451.801 273.945 451.344 273.886 450.953 273.751Z" fill="white"/>
<path d="M326.695 235.619C326.693 235.514 326.534 235.412 326.245 235.315C326.101 235.266 325.923 235.225 325.718 235.153C325.513 235.081 325.275 235.038 325.017 234.938C324.494 234.776 323.875 234.53 323.184 234.2C322.499 233.851 321.749 233.395 320.984 232.796C320.219 232.198 319.44 231.458 318.698 230.576C317.952 229.694 317.28 228.663 316.652 227.491C315.397 225.15 314.458 222.291 313.498 219.16L313.506 219.158L313.506 219.155C313.304 218.522 313.106 217.901 312.908 217.279C312.705 216.652 312.501 216.025 312.274 215.388C312.273 215.385 312.273 215.385 312.273 215.385L312.265 215.388C311.701 213.81 311.072 212.282 310.322 210.862C309.582 209.441 308.708 208.133 307.735 207.002C306.761 205.881 305.655 204.912 304.516 204.221C303.378 203.524 302.225 203.049 301.137 202.764C300.048 202.478 299.026 202.383 298.137 202.416C297.691 202.453 297.281 202.477 296.909 202.565C296.723 202.605 296.545 202.63 296.38 202.683C296.216 202.735 296.06 202.785 295.912 202.833C295.617 202.918 295.373 203.059 295.162 203.159C294.949 203.258 294.786 203.38 294.658 203.482C294.403 203.685 294.299 203.834 294.344 203.929C294.386 204.016 294.57 204.038 294.87 204.004C295.02 203.988 295.197 203.951 295.413 203.936C295.628 203.92 295.862 203.862 296.137 203.857C296.272 203.848 296.415 203.837 296.565 203.827C296.714 203.814 296.873 203.826 297.036 203.822C297.362 203.808 297.718 203.852 298.096 203.874C298.852 203.963 299.704 204.147 300.606 204.48C301.507 204.812 302.456 205.294 303.383 205.946C304.316 206.598 305.178 207.435 305.998 208.453C307.628 210.486 308.892 213.182 309.932 216.213L309.922 216.216C309.922 216.216 309.922 216.216 309.923 216.218C310.139 216.827 310.34 217.434 310.541 218.043C310.735 218.661 310.93 219.277 311.128 219.906L311.128 219.908L311.138 219.905C312.129 223.03 313.186 226.061 314.675 228.594C315.414 229.853 316.251 231.007 317.159 231.95C318.063 232.899 319.014 233.671 319.95 234.266C320.886 234.863 321.806 235.28 322.638 235.555C323.48 235.811 324.222 235.946 324.833 235.973C325.135 236.005 325.41 235.974 325.641 235.967C325.874 235.96 326.07 235.918 326.226 235.88C326.54 235.802 326.696 235.715 326.695 235.619Z" fill="white"/>
<path d="M367.907 239.441C367.904 239.336 367.744 239.234 367.457 239.138C367.313 239.092 367.137 239.047 366.935 238.973C366.732 238.903 366.498 238.851 366.244 238.746C365.227 238.39 363.806 237.72 362.393 236.389C361.685 235.733 360.979 234.925 360.338 233.971C359.694 233.021 359.123 231.934 358.62 230.69C358.111 229.457 357.671 228.098 357.239 226.649C356.806 225.199 356.383 223.656 355.857 222.059L355.865 222.056L355.864 222.054C355.653 221.411 355.421 220.778 355.167 220.154C355.043 219.841 354.925 219.525 354.794 219.214C354.655 218.905 354.517 218.595 354.376 218.283C354.376 218.281 354.376 218.281 354.376 218.281L354.367 218.284C353.648 216.746 352.859 215.293 351.987 213.972C351.573 213.296 351.099 212.68 350.667 212.058C350.434 211.76 350.203 211.465 349.976 211.174C349.862 211.028 349.748 210.884 349.635 210.741C349.516 210.602 349.398 210.465 349.281 210.328C347.414 208.135 345.492 206.413 343.771 205.146C342.049 203.878 340.54 203.057 339.467 202.573C338.379 202.113 337.738 201.969 337.641 202.152C337.44 202.525 339.599 203.837 342.639 206.541C344.152 207.897 345.859 209.631 347.529 211.761C347.635 211.893 347.741 212.027 347.848 212.161C347.948 212.299 348.05 212.439 348.152 212.579C348.356 212.859 348.564 213.143 348.773 213.43C349.159 214.026 349.589 214.613 349.96 215.255C350.749 216.509 351.462 217.876 352.12 219.315L352.11 219.32C352.11 219.32 352.11 219.32 352.111 219.322C352.242 219.613 352.372 219.901 352.501 220.187C352.624 220.477 352.735 220.77 352.852 221.061C353.086 221.643 353.299 222.231 353.501 222.845L353.501 222.847L353.511 222.844C354.532 225.874 355.315 228.938 356.545 231.591C357.14 232.912 357.863 234.144 358.669 235.184C359.471 236.226 360.35 237.088 361.238 237.764C362.125 238.441 363.015 238.938 363.844 239.253C364.044 239.343 364.256 239.395 364.449 239.461C364.547 239.492 364.642 239.522 364.736 239.551C364.833 239.573 364.927 239.594 365.019 239.615C365.204 239.655 365.38 239.693 365.548 239.724C365.719 239.741 365.881 239.758 366.035 239.775C366.339 239.814 366.616 239.793 366.849 239.785C367.084 239.78 367.281 239.742 367.439 239.702C367.754 239.624 367.909 239.537 367.907 239.441Z" fill="white"/>
<path d="M410.334 243.763C410.308 243.527 409.617 243.525 408.531 243.15C407.989 242.966 407.35 242.683 406.674 242.239C405.996 241.802 405.29 241.185 404.626 240.407C404.291 240.017 403.986 239.581 403.69 239.102C403.394 238.616 403.114 238.09 402.857 237.52C402.338 236.383 401.9 235.087 401.468 233.667C401.041 232.252 400.582 230.694 400.02 229.116C399.464 227.534 398.829 225.908 398.109 224.263L398.117 224.259L398.116 224.257C397.825 223.593 397.526 222.948 397.218 222.306C396.913 221.663 396.599 221.024 396.27 220.379C396.268 220.377 396.268 220.377 396.268 220.377L396.261 220.381C394.617 217.185 392.811 214.313 391.032 211.832C390.145 210.596 389.262 209.436 388.332 208.406C387.404 207.378 386.427 206.493 385.437 205.814C383.445 204.432 381.463 203.971 380.138 203.981C378.796 203.991 378.127 204.353 378.163 204.54C378.193 204.747 378.881 204.751 380.018 205.024C381.147 205.294 382.753 205.91 384.358 207.25C385.164 207.917 385.97 208.756 386.765 209.747C387.559 210.738 388.352 211.882 389.172 213.121C390.806 215.59 392.495 218.403 394.059 221.508L394.049 221.513C394.049 221.513 394.049 221.513 394.051 221.515C394.37 222.139 394.676 222.754 394.973 223.376C395.269 223.998 395.555 224.623 395.837 225.265L395.838 225.267L395.848 225.262C396.557 226.849 397.194 228.412 397.765 229.932C398.342 231.451 398.822 232.921 399.317 234.367C399.814 235.805 400.35 237.189 401.007 238.431C401.333 239.053 401.692 239.636 402.075 240.172C402.462 240.709 402.876 241.207 403.312 241.63C404.181 242.48 405.094 243.112 405.969 243.516C406.841 243.926 407.659 244.122 408.328 244.179C408.661 244.217 408.962 244.196 409.216 244.186C409.472 244.152 409.684 244.119 409.852 244.071C410.187 243.961 410.346 243.858 410.334 243.763Z" fill="white"/>
<path d="M444.822 250.919C445.114 250.542 443.189 249.011 441.279 245.607C440.312 243.919 439.39 241.757 438.6 239.237C437.806 236.719 437.191 233.818 436.505 230.691L436.514 230.689L436.513 230.687C436.368 230.056 436.225 229.437 436.082 228.816C435.936 228.194 435.786 227.571 435.624 226.937C435.624 226.935 435.624 226.935 435.624 226.935L435.615 226.937C434.802 223.799 433.771 220.832 432.363 218.348C430.967 215.874 429.297 213.891 427.629 212.55C425.986 211.175 424.373 210.465 423.253 210.139C422.968 210.063 422.716 209.999 422.495 209.957C422.27 209.927 422.078 209.911 421.921 209.907C421.608 209.901 421.436 209.948 421.407 210.049C421.382 210.142 421.503 210.276 421.751 210.445C421.875 210.529 422.03 210.622 422.215 210.723C422.395 210.837 422.602 210.966 422.837 211.102C423.76 211.669 425.079 212.505 426.428 213.884C427.799 215.23 429.188 217.11 430.371 219.42C431.555 221.723 432.461 224.504 433.22 227.55L433.209 227.553C433.209 227.553 433.209 227.553 433.21 227.555C433.366 228.169 433.515 228.775 433.661 229.384C433.8 229.998 433.94 230.611 434.082 231.235L434.082 231.237L434.093 231.235C434.805 234.338 435.504 237.321 436.455 239.954C437.396 242.581 438.535 244.847 439.761 246.565C440.959 248.303 442.226 249.472 443.157 250.16C443.395 250.328 443.606 250.475 443.796 250.591C443.993 250.701 444.163 250.786 444.306 250.848C444.59 250.97 444.764 250.996 444.822 250.919Z" fill="white"/>
<path d="M302.273 180.57C302.294 180.235 302.039 179.946 301.704 179.925C301.369 179.904 301.08 180.159 301.059 180.494C301.038 180.83 301.293 181.119 301.628 181.139C301.963 181.16 302.252 180.906 302.273 180.57Z" fill="#F48024"/>
<path d="M310.741 195.78C310.788 195.026 310.215 194.377 309.461 194.33C308.707 194.282 308.057 194.856 308.01 195.61C307.963 196.364 308.536 197.014 309.291 197.061C310.045 197.108 310.694 196.534 310.741 195.78Z" fill="#F48024"/>
<path d="M455.71 253.902C456.502 254 457.299 254.08 458.094 254.13C459.198 254.199 460.296 254.21 461.378 254.122L461.387 255.833C461.387 255.833 461.411 259.482 462.456 261.497C463.473 259.469 463.452 255.82 463.452 255.82L463.444 254.247C466.935 257.611 468.809 261.242 469.001 265.052C469.325 271.498 464.729 276.48 464.686 276.527L463.656 277.619L464.561 278.814C470.278 286.342 468.729 291.425 467.174 293.894C464.006 297.512 459.67 299.954 456.117 301.491C456.434 300.886 456.899 300.326 457.402 299.87C458.52 298.849 459.881 298.057 460.731 296.802C462.595 294.052 461.288 290.283 459.496 287.481C457.698 284.679 455.375 281.928 455.237 278.605C455.108 275.424 457.027 272.579 458.074 269.577C459.891 264.386 458.953 258.332 455.71 253.902Z" fill="#EAEAEA"/>
<path d="M461.358 317.705L456.594 318.773L460.935 321.007C462.266 321.688 467.685 326.028 468.274 330.727C468.572 333.117 467.596 335.272 465.284 337.307C457.02 344.6 447.365 336.765 446.961 336.43L446.868 336.353L446.3 335.879C449.634 335.843 452.964 335.324 456.154 334.336C457.153 334.026 458.197 333.63 458.825 332.796C460.299 330.841 458.597 328.075 456.713 326.513C455.201 325.262 453.5 324.181 452.377 322.573C451.259 320.966 450.897 318.594 452.198 317.129C453.647 315.5 456.272 315.761 458.182 314.706C460.679 313.329 461.275 309.449 459.317 307.381C458.152 306.156 456.276 305.472 455.788 303.854C455.729 303.665 455.697 303.472 455.686 303.281C461.138 302.482 464.7 300.657 466.833 299.137C468.11 300.201 470.429 302.943 469.783 308.464C468.913 315.868 461.659 317.635 461.358 317.705Z" fill="#EAEAEA"/>
<path d="M443.71 335.461C443.71 335.461 443.544 354.157 423.744 349.523C423.744 349.523 434.304 356.769 442.74 351.122C451.176 345.475 443.71 335.461 443.71 335.461Z" fill="#EAEAEA"/>
<path d="M265.123 294.276C261.94 293.297 256.157 290.317 256.557 281.63C257.048 270.927 267.586 268.727 269.882 268.369C272.406 270.671 276.306 273.654 280.626 274.867C280.546 275.093 280.444 275.312 280.32 275.521C278.16 279.229 271.486 278.529 269.977 282.543C268.888 285.439 271.445 288.342 273.854 290.283C275.267 291.426 276.802 292.754 277.731 294.27C274.21 294.87 269.051 295.386 265.123 294.276Z" fill="#EAEAEA"/>
<path d="M271.476 265.406C266.588 259.655 264.534 254.226 265.367 249.262C266.291 243.754 270.606 240.221 272.234 239.064C273.404 239.411 274.657 239.654 275.992 239.777C271.044 247.055 271.142 257.475 276.352 264.598C277.574 266.266 279.04 267.766 280.007 269.595C280.768 271.034 281.169 272.765 280.798 274.311C278.931 272.705 274.817 269.098 272.248 266.319L271.476 265.406Z" fill="#EAEAEA"/>
<path d="M284.633 338.622C283.543 338.749 282.41 338.798 281.262 338.731C277.042 338.48 273.471 336.755 270.669 333.58C262.155 323.933 272.899 313.83 273.355 313.407L275.601 311.354L272.704 310.419C269.532 309.402 267.557 307.829 266.817 305.753C265.766 302.789 267.354 299.361 268.079 298.033C270.653 297.981 274.311 297.451 278.304 295.471C278.564 296.196 278.653 296.964 278.515 297.771C278.067 300.318 275.335 302.283 275.666 304.848C276.012 307.479 279.286 308.619 280.555 310.949C281.811 313.248 280.82 316.137 279.393 318.335C277.962 320.533 276.074 322.52 275.367 325.041C274.575 327.872 275.448 330.998 277.216 333.346C278.984 335.695 281.553 337.335 284.261 338.47C284.386 338.522 284.507 338.574 284.633 338.622Z" fill="#EAEAEA"/>
<path d="M276.894 238.377C279.233 239.171 281.374 240.538 283.08 242.323C284.309 243.609 285.687 245.261 287.442 244.973C288.495 244.8 289.281 243.954 290.132 243.31C291.918 241.96 294.293 241.42 296.487 241.865C297.616 242.094 298.732 242.571 299.876 242.435C301.676 242.219 302.92 240.601 304.032 239.168C305.143 237.736 306.63 236.232 308.435 236.399C299.541 235.602 290.529 236.126 281.787 237.95" fill="#EAEAEA"/>
<path d="M334.035 236.72C335.248 237.752 336.257 238.999 337.345 240.163C338.433 241.327 339.634 242.434 341.09 243.08C342.545 243.727 344.304 243.857 345.703 243.093C347.014 242.378 347.816 241.022 348.727 239.837C349.637 238.652 350.898 237.512 352.391 237.573C347.374 236.495 342.239 235.965 337.108 235.993" fill="#EAEAEA"/>
<path d="M397.179 241.999C400.442 243.454 401.213 248.147 404.448 249.662C406.652 250.694 409.222 249.899 411.65 249.743C414.497 249.561 417.396 250.321 419.787 251.878C421.429 252.947 423.061 254.449 425.013 254.284C426.602 254.149 427.848 252.938 429.128 251.989C431.428 250.285 434.238 249.281 437.097 249.14C426.466 247.658 415.835 246.176 405.203 244.693" fill="#EAEAEA"/>
<path d="M423.088 311.738C423.172 310.392 420.244 309.114 416.547 308.883C412.851 308.653 409.787 309.557 409.703 310.903C409.619 312.249 412.547 313.527 416.243 313.757C419.939 313.988 423.004 313.084 423.088 311.738Z" fill="#F48024"/>
<path d="M328.111 303.705C328.195 302.359 325.267 301.081 321.571 300.85C317.875 300.62 314.81 301.524 314.726 302.869C314.642 304.215 317.571 305.493 321.267 305.724C324.963 305.955 328.027 305.051 328.111 303.705Z" fill="#F48024"/>
<path d="M463.944 285.587C463.944 285.587 463.779 285.621 463.481 285.682C463.182 285.744 462.744 285.81 462.195 285.867C461.101 285.977 459.548 285.997 457.85 285.678C457.003 285.517 456.206 285.29 455.495 285.041C454.788 284.779 454.16 284.512 453.652 284.245C453.395 284.12 453.17 283.989 452.972 283.877C452.773 283.767 452.605 283.664 452.47 283.576C452.201 283.401 452.051 283.305 452.051 283.305C452.051 283.305 452.22 283.358 452.525 283.453C452.825 283.554 453.264 283.686 453.8 283.842C454.334 284.002 454.974 284.164 455.676 284.339C456.383 284.504 457.155 284.671 457.967 284.827C459.59 285.135 461.071 285.333 462.163 285.438C462.707 285.49 463.153 285.531 463.462 285.549C463.772 285.573 463.944 285.587 463.944 285.587Z" fill="#EAEAEA"/>
<path d="M434.091 274.543C434.091 274.543 434.213 274.68 434.406 274.955C434.596 275.23 434.856 275.648 435.091 276.217C435.208 276.501 435.319 276.822 435.409 277.177C435.455 277.355 435.494 277.541 435.527 277.736C435.559 277.928 435.591 278.126 435.599 278.371C435.604 278.612 435.595 278.881 435.497 279.195C435.405 279.5 435.18 279.877 434.82 280.104C434.644 280.219 434.442 280.301 434.245 280.342C434.048 280.381 433.861 280.387 433.687 280.373C433.342 280.343 433.053 280.248 432.792 280.135C430.922 279.229 429.856 277.722 429.329 276.566C429.068 275.983 428.929 275.487 428.86 275.14C428.819 274.97 428.805 274.832 428.79 274.741C428.777 274.65 428.77 274.601 428.77 274.601C428.77 274.601 428.891 274.756 429.107 275.035C429.319 275.308 429.641 275.683 430.048 276.097C430.457 276.511 430.964 276.954 431.54 277.382C431.829 277.596 432.139 277.8 432.461 278.001C432.622 278.101 432.789 278.196 432.958 278.292C433.126 278.381 433.313 278.488 433.451 278.55C433.597 278.617 433.735 278.664 433.827 278.682C433.926 278.703 433.945 278.696 433.948 278.713C433.955 278.722 433.976 278.746 434.026 278.682C434.072 278.62 434.121 278.5 434.151 278.356C434.184 278.218 434.199 278.046 434.216 277.874C434.232 277.705 434.245 277.538 434.253 277.377C434.27 277.053 434.274 276.745 434.268 276.459C434.256 275.889 434.206 275.409 434.164 275.073C434.117 274.732 434.091 274.543 434.091 274.543Z" fill="#EAEAEA"/>
<path d="M337.171 254.011C337.171 254.011 337.253 254.194 337.425 254.511C337.597 254.829 337.873 255.268 338.241 255.823C338.601 256.387 339.072 257.049 339.437 258.005C339.605 258.487 339.733 259.018 339.749 259.602C339.768 260.182 339.683 260.828 339.373 261.457C339.064 262.084 338.515 262.613 337.894 262.875C337.276 263.143 336.645 263.187 336.094 263.115C335.539 263.045 335.047 262.865 334.625 262.633C334.212 262.402 333.88 262.136 333.604 261.877C333.055 261.354 332.717 260.876 332.483 260.551C332.253 260.222 332.135 260.035 332.135 260.035C332.135 260.035 332.33 260.148 332.67 260.359C333.012 260.566 333.498 260.882 334.101 261.177C334.402 261.324 334.734 261.457 335.083 261.553C335.424 261.642 335.795 261.688 336.161 261.668C336.526 261.651 336.881 261.56 337.165 261.404C337.308 261.325 337.429 261.231 337.537 261.114C337.648 261.001 337.744 260.874 337.821 260.72C338.143 260.112 338.179 259.222 338.058 258.453C337.933 257.677 337.658 256.892 337.483 256.228C337.297 255.559 337.198 254.992 337.174 254.606C337.148 254.219 337.171 254.011 337.171 254.011Z" fill="#EAEAEA"/>
<path d="M399.258 323.446C399.258 323.446 399.177 323.59 399.054 323.856C398.93 324.123 398.777 324.513 398.611 325.021C398.438 325.526 398.259 326.156 397.932 326.877C397.6 327.583 397.11 328.432 396.158 329.023C395.696 329.306 395.17 329.485 394.623 329.522C394.077 329.564 393.51 329.436 393.055 329.162C392.147 328.61 391.779 327.666 391.824 326.924C391.87 326.179 392.219 325.696 392.48 325.433C392.613 325.299 392.735 325.218 392.815 325.164C392.899 325.115 392.943 325.089 392.943 325.089C392.943 325.089 392.916 325.133 392.866 325.216C392.821 325.302 392.755 325.423 392.701 325.585C392.59 325.901 392.521 326.39 392.679 326.856C392.825 327.311 393.237 327.728 393.705 327.869C394.153 328.001 394.694 327.893 395.24 327.573C395.759 327.275 396.232 326.747 396.65 326.204C397.069 325.657 397.457 325.092 397.836 324.65C398.211 324.204 398.571 323.886 398.834 323.702C399.098 323.516 399.258 323.446 399.258 323.446Z" fill="#EAEAEA"/>
<path d="M345.55 326.812C345.55 326.812 345.679 326.949 345.886 327.225C346.09 327.503 346.378 327.92 346.628 328.519C346.871 329.116 347.089 329.908 346.982 330.857C346.927 331.323 346.796 331.812 346.551 332.287C346.311 332.761 345.947 333.22 345.461 333.578C344.968 333.938 344.363 334.146 343.799 334.18C343.229 334.221 342.67 334.114 342.186 333.875C341.701 333.645 341.3 333.255 341.064 332.846C340.827 332.436 340.728 332.018 340.695 331.66C340.641 330.938 340.782 330.417 340.877 330.067C340.978 329.717 341.055 329.534 341.055 329.534C341.055 329.534 341.087 329.732 341.144 330.089C341.206 330.437 341.299 330.952 341.532 331.468C341.647 331.724 341.813 331.965 342.012 332.155C342.221 332.342 342.448 332.467 342.726 332.531C343.269 332.665 343.948 332.552 344.425 332.207C344.943 331.851 345.33 331.252 345.553 330.63C345.774 330.014 345.824 329.344 345.807 328.768C345.788 328.188 345.708 327.695 345.65 327.351C345.586 327.005 345.55 326.812 345.55 326.812Z" fill="#EAEAEA"/>
<path d="M297.554 302.042C297.554 302.042 297.431 302.168 297.19 302.39C296.939 302.593 296.561 302.895 296.019 303.151C295.482 303.413 294.788 303.648 293.978 303.738C293.17 303.833 292.246 303.767 291.325 303.467C291.093 303.4 290.875 303.295 290.657 303.207C290.447 303.095 290.233 303.001 290.042 302.871C289.663 302.636 289.261 302.359 288.935 301.904C288.775 301.678 288.643 301.395 288.6 301.09C288.554 300.785 288.603 300.474 288.708 300.231C288.92 299.736 289.273 299.458 289.607 299.278C289.959 299.097 290.271 299.057 290.535 299.04C290.798 299.025 291.011 299.047 291.181 299.068C291.519 299.114 291.694 299.156 291.694 299.156C291.694 299.156 291.517 299.22 291.201 299.335C290.899 299.452 290.41 299.628 290.093 299.985C289.94 300.16 289.826 300.396 289.825 300.588C289.83 300.785 289.908 300.86 290.061 300.994C290.223 301.127 290.485 301.276 290.819 301.424C291.135 301.577 291.473 301.705 291.823 301.825C293.225 302.301 294.641 302.422 295.729 302.344C296.275 302.315 296.725 302.221 297.05 302.162C297.374 302.085 297.554 302.042 297.554 302.042Z" fill="#EAEAEA"/>
<path d="M394.089 272.591C394.089 272.591 393.043 271.936 392.445 270.736C391.847 269.537 391.923 268.246 391.923 268.246C391.923 268.246 393.375 268.756 393.973 269.956C394.571 271.155 394.089 272.591 394.089 272.591Z" fill="#EAEAEA"/>
<path d="M307.831 256.52C307.831 256.52 309.163 254.685 311.359 252.998C313.554 251.311 315.782 250.41 315.782 250.41C315.782 250.41 314.628 252.65 312.432 254.337C310.237 256.024 307.831 256.52 307.831 256.52Z" fill="#EAEAEA"/>
<path d="M306.245 281.146C306.245 281.146 305.829 280.143 306.095 279.061C306.362 277.979 307.209 277.228 307.209 277.228C307.209 277.228 308.031 278.375 307.765 279.458C307.499 280.539 306.245 281.146 306.245 281.146Z" fill="#EAEAEA"/>
<path d="M384.499 284.864C384.499 284.864 383.245 284.284 382.299 283.048C381.353 281.812 381.073 280.387 381.073 280.387C381.073 280.387 382.703 280.753 383.649 281.99C384.596 283.225 384.499 284.864 384.499 284.864Z" fill="#EAEAEA"/>
<path d="M441.311 310.784C441.311 310.784 440.081 309.739 439.248 308.046C438.416 306.354 438.298 304.655 438.298 304.655C438.298 304.655 439.946 305.575 440.778 307.268C441.61 308.96 441.311 310.784 441.311 310.784Z" fill="#EAEAEA"/>
<path d="M433.095 265.125C433.095 265.125 431.919 264.665 431.066 263.574C430.213 262.484 430.006 261.175 430.006 261.175C430.006 261.175 431.553 261.412 432.406 262.503C433.26 263.594 433.095 265.125 433.095 265.125Z" fill="#EAEAEA"/>
<path d="M411.983 337.274C411.983 337.274 411.717 337.012 411.402 336.518C411.089 336.026 410.735 335.29 410.59 334.409C410.444 333.528 410.539 332.694 410.68 332.106C410.819 331.515 410.989 331.16 410.989 331.16C410.989 331.16 411.248 331.522 411.537 332.063C411.824 332.607 412.15 333.315 412.28 334.109C412.41 334.903 412.326 335.668 412.223 336.266C412.119 336.859 411.983 337.274 411.983 337.274Z" fill="#EAEAEA"/>
<path d="M381.356 341.317C381.356 341.317 380.652 341.045 380.56 340.549C380.469 340.054 381.025 339.523 381.025 339.523C381.025 339.523 382.155 339.736 382.247 340.231C382.338 340.727 381.356 341.317 381.356 341.317Z" fill="#EAEAEA"/>
<path d="M340.365 313.107C340.365 313.107 339.997 311.826 340.327 310.378C340.657 308.929 341.561 307.86 341.561 307.86C341.561 307.86 342.335 309.292 342.005 310.74C341.675 312.189 340.365 313.107 340.365 313.107Z" fill="#EAEAEA"/>
<path d="M383.198 255.019C383.198 255.019 382.421 254.416 382.234 253.487C382.048 252.557 382.522 251.653 382.522 251.653C382.522 251.653 383.727 252.207 383.914 253.137C384.101 254.066 383.198 255.019 383.198 255.019Z" fill="#EAEAEA"/>
<path d="M348.912 275.502C348.912 275.502 348.097 275.058 347.842 274.247C347.587 273.435 347.987 272.564 347.987 272.564C347.987 272.564 349.221 272.91 349.476 273.721C349.731 274.533 348.912 275.502 348.912 275.502Z" fill="#EAEAEA"/>
<path d="M272.577 252.939C271.34 252.168 270.206 251.236 269.184 250.202L268.646 250.725L268.109 251.248C269.216 252.37 270.441 253.376 271.777 254.209C271.777 254.209 272.079 254.411 272.603 254.69C273.122 254.977 273.869 255.334 274.735 255.652C275.6 255.972 276.588 256.244 277.565 256.385C278.54 256.532 279.497 256.554 280.284 256.463C279.54 256.181 278.664 255.886 277.785 255.546C276.904 255.211 276.022 254.826 275.248 254.443C274.474 254.062 273.803 253.692 273.332 253.405C272.856 253.127 272.577 252.939 272.577 252.939Z" fill="#EAEAEA"/>
<path d="M270.131 281.389C269.175 280.957 268.274 280.408 267.437 279.78L266.982 280.377L266.527 280.974C267.455 281.671 268.45 282.276 269.506 282.753C269.506 282.753 269.746 282.871 270.156 283.022C270.564 283.178 271.144 283.363 271.808 283.504C273.132 283.808 274.809 283.823 275.935 283.454C274.814 283.07 273.334 282.691 272.168 282.24C271.584 282.024 271.073 281.815 270.712 281.652C270.348 281.495 270.131 281.389 270.131 281.389Z" fill="#EAEAEA"/>
<path d="M276.312 327.505C274.419 327.747 272.493 327.659 270.627 327.304L270.479 328.04L270.332 328.776C272.361 329.164 274.446 329.256 276.491 328.996C276.491 328.996 276.609 328.981 276.823 328.954C277.038 328.934 277.345 328.868 277.727 328.797C278.49 328.654 279.538 328.377 280.664 327.941C281.79 327.51 282.988 326.902 284.042 326.159C285.1 325.425 286.012 324.57 286.659 323.774C285.766 324.286 284.721 324.885 283.607 325.408C282.498 325.938 281.319 326.381 280.236 326.699C279.154 327.021 278.172 327.233 277.46 327.343C277.104 327.398 276.819 327.455 276.62 327.47C276.421 327.492 276.312 327.505 276.312 327.505Z" fill="#EAEAEA"/>
<path d="M448.877 319.334L452.784 320.251L452.955 319.521L453.127 318.79L449.22 317.873C449.22 317.873 444.418 316.745 441.594 316.853C444.076 318.207 448.877 319.334 448.877 319.334Z" fill="#EAEAEA"/>
<path d="M410.724 189.455C411.135 189.405 411.543 189.333 411.939 189.238L408.52 205.603C406.957 205.368 405.416 205.135 403.905 204.916L406.511 189.156C407.885 189.504 409.305 189.623 410.724 189.455Z" fill="#AA7E52"/>
<path d="M442.601 159.639L433.397 194.424L433.392 194.424C433.392 194.424 431.778 194.793 430.998 195.497C431.647 195.689 432.547 195.607 433.106 195.523L429.487 209.212C427.954 208.912 426.413 208.625 424.866 208.338L435.151 161.558C435.428 161.394 435.712 161.243 436.004 161.102C438.079 160.092 440.312 159.669 442.601 159.639Z" fill="#AA7E52"/>
<path opacity="0.7" d="M368.881 396.444C405.161 396.444 434.572 391.849 434.572 386.182C434.572 380.514 405.161 375.919 368.881 375.919C332.601 375.919 303.19 380.514 303.19 386.182C303.19 391.849 332.601 396.444 368.881 396.444Z" fill="#EAEAEA"/>
<path d="M279.503 167.413L277.27 166.037C276.914 165.817 276.628 165.5 276.446 165.123L275.309 162.76C274.558 161.201 272.382 161.088 271.474 162.561L270.098 164.794C269.879 165.15 269.562 165.436 269.185 165.617L266.821 166.755C265.263 167.505 265.15 169.682 266.622 170.589L268.856 171.966C269.212 172.185 269.498 172.502 269.679 172.879L270.817 175.243C271.567 176.801 273.744 176.914 274.651 175.441L276.027 173.208C276.247 172.852 276.564 172.566 276.941 172.385L279.304 171.247C280.862 170.497 280.975 168.32 279.503 167.413Z" fill="white"/>
<path d="M409.451 97.9751L407.86 96.9949C407.606 96.8386 407.403 96.6128 407.273 96.3442L406.463 94.6608C405.929 93.5506 404.379 93.4705 403.732 94.5192L402.752 96.11C402.596 96.3638 402.37 96.5674 402.101 96.6967L400.418 97.507C399.308 98.0414 399.228 99.5916 400.276 100.238L401.867 101.218C402.121 101.374 402.325 101.6 402.454 101.869L403.264 103.552C403.799 104.662 405.349 104.742 405.995 103.694L406.975 102.103C407.132 101.849 407.357 101.646 407.626 101.516L409.309 100.706C410.419 100.172 410.5 98.6214 409.451 97.9751Z" fill="white"/>
<path d="M314.513 125.757L313.468 125.113C313.302 125.01 313.168 124.862 313.083 124.685L312.551 123.58C312.2 122.85 311.181 122.798 310.757 123.487L310.113 124.532C310.01 124.698 309.862 124.832 309.685 124.917L308.58 125.449C307.851 125.8 307.798 126.819 308.487 127.243L309.532 127.887C309.698 127.99 309.832 128.138 309.917 128.315L310.449 129.42C310.8 130.149 311.819 130.202 312.243 129.513L312.887 128.468C312.99 128.302 313.138 128.168 313.315 128.083L314.42 127.55C315.15 127.2 315.202 126.181 314.513 125.757Z" fill="white"/>
<path d="M350.513 88.7568L349.468 88.113C349.302 88.0103 349.168 87.8619 349.083 87.6855L348.551 86.5797C348.2 85.8504 347.181 85.7978 346.757 86.4867L346.113 87.5317C346.01 87.6984 345.862 87.8321 345.685 87.9171L344.58 88.4494C343.851 88.8004 343.798 89.8187 344.487 90.2432L345.532 90.8871C345.698 90.9898 345.832 91.1381 345.917 91.3146L346.449 92.4204C346.8 93.1494 347.819 93.2022 348.243 92.5134L348.887 91.4684C348.99 91.3017 349.138 91.1679 349.315 91.083L350.42 90.5505C351.15 90.1997 351.202 89.1814 350.513 88.7568Z" fill="white"/>
<path d="M482.437 350.12L479.56 348.972C479.101 348.789 478.704 348.478 478.416 348.077L476.613 345.558C475.424 343.897 472.869 344.208 472.112 346.105L470.964 348.982C470.781 349.441 470.47 349.838 470.069 350.126L467.55 351.929C465.889 353.118 466.2 355.673 468.097 356.43L470.974 357.577C471.433 357.761 471.83 358.072 472.117 358.473L473.921 360.992C475.11 362.652 477.665 362.342 478.422 360.445L479.569 357.568C479.752 357.109 480.063 356.712 480.465 356.424L482.984 354.621C484.645 353.432 484.334 350.877 482.437 350.12Z" fill="#F48024"/>
<path d="M469.453 296.741C471.645 293.855 474.772 287.268 468.21 277.814C469.811 275.713 472.824 270.922 472.537 264.917C472.327 260.525 470.404 256.405 466.827 252.636C469.305 251.334 471.525 249.064 473.277 245.28C477.347 236.488 475.046 226.728 467.55 220.993C462.147 216.859 448.369 213.042 432.961 209.904L462.029 100.029C462.739 97.3543 461.607 94.7162 459.455 94.0236L451.379 91.4186C450.429 91.113 449.405 91.233 448.495 91.7554C447.317 92.4319 446.448 93.6983 446.111 95.2299L421.381 207.714C418.241 207.161 415.104 206.639 412.02 206.15L435.414 94.2378C435.981 91.5308 434.713 88.957 432.529 88.3777L424.33 86.1995C423.367 85.9448 422.352 86.1162 421.471 86.6847C420.329 87.4213 419.527 88.7325 419.269 90.283L400.4 204.418C388.376 202.74 378.528 201.715 374.816 201.557C374.12 201.504 370.96 201.27 366.145 200.989L349.905 184.553L337.171 199.866C334.853 199.824 333.307 200.099 331 199.866C329.51 195.293 327.184 187.792 327.184 187.792C322.649 177.931 314.85 172.774 304.001 172.463C287.795 171.997 277.5 204.418 277.5 204.418C274.311 205.336 274.578 205.894 272.812 207.221C264.448 213.505 260.494 223.587 263.41 231.193C264.436 233.871 266.201 235.971 268.569 237.439C266.174 239.494 262.803 243.245 261.883 248.636C260.974 253.971 262.669 259.588 266.927 265.366C261.157 266.918 253.482 271.497 253.023 281.469C252.555 291.664 259.218 296.251 264.282 297.739C263.312 299.952 262.274 303.496 263.476 306.914C264.359 309.425 266.25 311.395 269.114 312.792C267.982 314.15 266.55 316.136 265.467 318.538C262.636 324.812 263.518 330.823 268.018 335.922C271.571 339.949 276.114 342.093 281.521 342.284C286.516 342.464 291.351 340.854 294.33 339.386C295.051 342.62 297.502 347.472 305.497 349.957C307.077 350.448 308.635 350.716 310.154 350.811C317.447 351.265 323.79 347.712 326.909 345.565C328.394 348.98 332.192 354.695 341.127 355.481C341.373 355.502 341.614 355.52 341.854 355.535C349.467 356.01 354.003 353.192 356.355 350.97C357.663 352.985 360.115 355.009 364.29 355.448C368.707 355.918 371.308 353.878 372.697 351.606C375.076 354.299 379.706 357.708 387.674 357.19C396.705 356.6 402.017 351.348 404.322 348.381C405.481 349.42 407.242 350.578 409.621 351.014C412.925 351.622 416.477 350.699 420.21 348.278C422.355 351.275 426.58 354.892 432.754 355.276C434.04 355.357 435.413 355.296 436.868 355.061C445.052 353.736 447.486 346.706 447.738 341.219C452.795 344.051 460.8 345.984 467.626 339.961C471.621 336.435 472.092 332.757 471.785 330.291C471.25 326.002 468.037 322.209 465.413 319.923C468.773 318.185 472.613 314.712 473.296 308.875C474.072 302.232 471.392 298.514 469.453 296.741ZM449.567 95.99C449.74 95.2051 450.185 94.814 450.293 94.7863L458.363 97.3887C458.542 97.4843 458.851 98.2097 458.609 99.1226L456.158 108.387C456.058 108.502 455.961 108.62 455.858 108.733C455.858 108.733 455.459 109.187 454.942 109.776C454.432 110.37 453.797 111.085 453.413 111.712C454.115 111.492 454.95 110.947 455.572 110.423C455.593 110.405 455.612 110.389 455.633 110.371L433.397 194.422L433.392 194.423C433.392 194.423 431.777 194.79 430.999 195.497C431.648 195.69 432.547 195.606 433.106 195.522L429.484 209.212C427.953 208.914 426.412 208.624 424.865 208.34L449.567 95.99ZM415.193 136.629C415.331 136.773 415.491 136.932 415.675 137.096C416.254 137.626 417.052 138.17 417.729 138.38C417.374 137.767 416.79 137.065 416.332 136.476C415.868 135.889 415.513 135.437 415.513 135.437C415.478 135.394 415.446 135.348 415.412 135.304L416.059 131.386C416.213 131.526 416.399 131.688 416.611 131.856C417.191 132.323 417.959 132.817 418.613 133.014C418.283 132.415 417.707 131.746 417.232 131.201C416.755 130.66 416.369 130.252 416.369 130.252C416.334 130.215 416.301 130.175 416.266 130.138L422.759 90.862C422.902 90.0038 423.349 89.6461 423.42 89.6194L431.613 91.7949C431.797 91.8821 432.143 92.5924 431.95 93.5131L408.519 205.604C406.959 205.366 405.417 205.136 403.904 204.917L415.193 136.629ZM349.905 184.553L366.145 200.989C360.258 200.674 345.373 200.058 337.171 199.866L349.905 184.553ZM304.001 172.463C314.85 172.774 322.649 177.931 327.184 187.792C327.184 187.792 329.51 195.293 331 199.866C310 198.5 277.5 204.418 277.5 204.418C277.5 204.418 287.795 171.997 304.001 172.463ZM266.714 229.927C264.39 223.864 267.925 215.318 274.937 210.05C279.187 206.856 292.215 203.099 330.141 203.333C353.065 203.474 374.365 205.071 374.578 205.088L374.607 205.09L374.637 205.091C385.241 205.545 452.489 213.926 465.4 223.804C471.645 228.581 473.476 236.428 470.066 243.793C466.481 251.535 461.011 251.237 452.428 249.828C444.546 248.534 436.541 247.13 428.8 245.774L422.884 244.738C396.172 240.074 371.704 237.048 348.689 235.612C324.682 234.113 302.259 234.346 280.543 236.256C273.431 236.883 268.518 234.635 266.714 229.927ZM469.781 308.464C468.915 315.87 461.66 317.635 461.358 317.706L456.593 318.774L460.936 321.005C462.268 321.69 467.687 326.03 468.274 330.73C468.572 333.118 467.594 335.27 465.285 337.308C457.02 344.6 447.365 336.767 446.961 336.432L443.427 333.482L444.076 338.039C444.145 338.529 445.674 350.05 436.303 351.568C431.614 352.326 428.236 350.89 425.973 349.165C418.994 343.618 419.855 332.623 419.855 332.623C417.962 337.795 418.299 342.079 418.962 344.851C415.771 347.085 412.862 347.992 410.31 347.543C407.239 347.003 405.683 344.671 405.626 344.582L404.02 342.043L402.578 344.678C402.533 344.761 397.922 352.975 387.443 353.659C377.32 354.323 373.974 347.38 373.841 347.094L371.338 341.549L370.474 347.581C370.358 348.397 369.542 352.44 364.66 351.928C359.403 351.375 358.693 347.762 358.632 347.371L357.952 342.228L355.341 346.724C355.195 346.975 351.654 352.862 341.436 351.955C332.1 351.134 329.9 343.888 329.573 342.558C331.401 339.9 333.345 335.51 332.453 329.494C332.453 329.494 330.673 338.462 324.656 342.798C321.279 345.051 314.027 348.902 306.546 346.576C296.903 343.581 297.553 336.904 297.584 336.637L298.272 331.531L294.601 335.131C293.795 335.855 287.75 339.103 281.261 338.729C277.041 338.48 273.47 336.752 270.67 333.58C262.156 323.932 272.896 313.832 273.355 313.409L275.601 311.352L272.702 310.419C269.534 309.4 267.554 307.83 266.818 305.753C265.768 302.787 267.353 299.359 268.077 298.031C271.382 297.962 276.459 297.115 281.747 293.425C281.747 293.425 271.701 296.135 265.122 294.277C261.938 293.298 256.159 290.319 256.558 281.631C257.05 270.926 267.585 268.724 269.882 268.37C272.628 270.876 277.002 274.185 281.779 275.146C281.779 275.146 275.658 270.003 272.248 266.318L271.474 265.408C266.587 259.656 264.532 254.224 265.365 249.263C266.29 243.754 270.604 240.222 272.234 239.065C274.731 239.81 277.63 240.063 280.852 239.78C282.323 239.651 283.799 239.531 285.277 239.417C285.687 239.655 286.064 240.017 286.354 240.463C286.354 240.463 286.475 240.638 286.641 240.949C286.806 241.259 286.993 241.706 287.135 242.304C287.442 243.468 287.459 245.133 287.776 246.392C288.466 245.315 289.012 243.639 288.925 242.066C288.896 241.299 288.696 240.571 288.481 240.087C288.269 239.602 288.081 239.334 288.081 239.334C288.055 239.294 288.024 239.257 287.997 239.218C289.764 239.094 291.536 238.979 293.314 238.877C293.911 238.905 294.513 239.046 295.066 239.327C295.066 239.327 295.219 239.391 295.46 239.525C295.706 239.65 296.036 239.85 296.397 240.107C297.141 240.611 297.891 241.418 298.583 242.19C298.735 241.7 298.729 241.073 298.551 240.463C298.38 239.849 298.039 239.267 297.652 238.809C297.607 238.755 297.561 238.709 297.515 238.658C311.677 237.987 326.23 238.015 341.403 238.754C341.486 238.877 341.568 239.001 341.64 239.13C341.64 239.13 341.818 239.426 342.11 239.798C342.409 240.17 342.806 240.635 343.39 240.995C343.826 240.465 343.892 239.698 343.78 239.109C343.765 239.026 343.748 238.948 343.729 238.873C362.53 239.874 382.301 241.962 403.479 245.161C403.397 245.25 403.315 245.341 403.237 245.442C402.848 245.937 402.534 246.566 402.405 247.207C402.268 247.845 402.32 248.487 402.527 248.969C403.122 248.106 403.834 247.217 404.541 246.693C404.885 246.424 405.21 246.242 405.45 246.119C405.692 245.999 405.844 245.935 405.844 245.935C406.136 245.807 406.446 245.719 406.761 245.663C411.849 246.453 417.016 247.306 422.274 248.224L422.423 248.25C422.29 248.641 422.167 249.036 422.067 249.437C422.067 249.437 422.002 249.67 421.937 250.06C421.868 250.448 421.804 250.996 421.798 251.61C421.769 252.839 422.069 254.335 422.711 255.258C423.095 254.202 423.326 252.877 423.592 251.815C423.841 250.753 424.067 249.947 424.067 249.947C424.18 249.493 424.32 249.047 424.481 248.609L428.188 249.258C435.938 250.617 443.952 252.021 451.853 253.319C453.891 253.654 455.999 254 458.091 254.13C459.195 254.199 460.295 254.208 461.377 254.123L461.387 255.83C461.387 255.83 461.41 259.483 462.454 261.495C463.474 259.47 463.452 255.818 463.452 255.818L463.442 254.247C466.936 257.612 468.807 261.241 469 265.052C469.325 271.499 464.729 276.48 464.686 276.526L463.654 277.617L464.561 278.813C470.278 286.342 468.729 291.425 467.172 293.894C460.796 301.166 449.727 303.688 449.727 303.688C458.656 303.708 464.002 301.153 466.833 299.136C468.11 300.202 470.427 302.942 469.781 308.464Z" fill="black"/>
<path d="M452.251 273.89C452.811 273.819 453.307 273.596 453.703 273.306C454.102 273.015 454.416 272.658 454.654 272.263C455.129 271.456 455.223 270.635 455.194 269.932C455.161 269.222 455.003 268.616 454.818 268.068C454.628 267.52 454.394 267.037 454.147 266.623C453.649 265.792 453.109 265.239 452.717 264.897C452.323 264.554 452.079 264.406 452.079 264.406C452.079 264.406 452.214 264.655 452.416 265.108C452.616 265.561 452.869 266.226 453.048 267.054C453.136 267.467 453.206 267.92 453.24 268.403C453.27 268.885 453.279 269.402 453.204 269.871C453.136 270.338 452.973 270.777 452.749 271.051C452.521 271.347 452.168 271.542 451.942 271.549C451.834 271.562 451.705 271.54 451.54 271.474C451.376 271.41 451.179 271.285 450.978 271.132C450.777 270.979 450.565 270.787 450.352 270.591C450.141 270.398 449.939 270.203 449.745 270.01C448.97 269.235 448.327 268.47 447.82 267.796C447.31 267.122 446.937 266.538 446.681 266.131C446.43 265.717 446.292 265.488 446.292 265.488C446.292 265.488 446.294 265.559 446.298 265.693C446.303 265.827 446.315 266.025 446.343 266.279C446.401 266.785 446.518 267.524 446.811 268.407C447.098 269.291 447.564 270.319 448.277 271.355C448.455 271.614 448.649 271.873 448.859 272.128C449.065 272.38 449.295 272.646 449.585 272.91C449.872 273.172 450.221 273.436 450.67 273.64C451.113 273.845 451.683 273.959 452.251 273.89Z" fill="black"/>
<path d="M311.251 310.956C311.343 310.709 311.373 310.501 311.408 310.369C311.437 310.235 311.452 310.165 311.452 310.165C311.452 310.165 311.404 310.223 311.313 310.334C311.218 310.443 311.103 310.611 310.917 310.8C310.572 311.191 310.035 311.708 309.316 312.192C308.595 312.67 307.704 313.136 306.683 313.412C306.176 313.551 305.643 313.662 305.094 313.7C304.552 313.733 303.971 313.732 303.45 313.645C302.928 313.556 302.517 313.397 302.234 313.166C301.943 312.942 301.709 312.582 301.57 312.148C301.436 311.715 301.381 311.232 301.416 310.778C301.442 310.328 301.557 309.863 301.693 309.45C301.97 308.612 302.33 307.925 302.558 307.446C302.79 306.963 302.919 306.695 302.919 306.695C302.919 306.695 302.684 306.87 302.273 307.212C301.868 307.561 301.266 308.064 300.654 308.889C300.056 309.69 299.43 310.981 299.619 312.537C299.705 313.302 300.033 314.175 300.723 314.846C301.407 315.521 302.311 315.859 303.144 315.985C304.809 316.21 306.333 315.838 307.529 315.215C308.737 314.608 309.605 313.751 310.199 312.979C310.784 312.188 311.097 311.464 311.251 310.956Z" fill="black"/>
<path d="M437.944 322.416C437.484 321.751 436.997 321.377 436.664 321.114C436.325 320.858 436.121 320.729 436.121 320.729C436.121 320.729 436.208 320.943 436.362 321.325C436.509 321.701 436.735 322.244 436.851 322.858C436.903 323.159 436.93 323.49 436.883 323.778C436.841 324.037 436.724 324.33 436.55 324.557C436.381 324.793 436.154 324.938 436.019 324.948C435.896 324.959 435.761 324.958 435.432 324.778C435.123 324.611 434.706 324.283 434.289 323.981C433.878 323.683 433.475 323.405 433.088 323.147C432.312 322.632 431.593 322.199 430.98 321.85C429.754 321.152 428.948 320.79 428.948 320.79C428.948 320.79 429.39 321.616 430.261 322.786C430.697 323.37 431.24 324.041 431.887 324.737C432.211 325.084 432.561 325.438 432.936 325.79C433.307 326.13 433.698 326.516 434.352 326.877C434.678 327.05 435.068 327.2 435.509 327.249C435.944 327.301 436.43 327.23 436.829 327.055C437.643 326.692 438.1 326.045 438.33 325.45C438.565 324.844 438.603 324.233 438.495 323.684C438.382 323.164 438.17 322.75 437.944 322.416Z" fill="black"/>
<path d="M343.799 276.025C344.089 271.382 340.56 267.384 335.918 267.094C331.275 266.804 327.276 270.333 326.987 274.975C326.697 279.618 330.226 283.617 334.868 283.906C339.511 284.196 343.51 280.667 343.799 276.025Z" fill="black"/>
<path d="M411.556 281.249C411.845 276.606 408.317 272.608 403.674 272.318C399.032 272.028 395.033 275.557 394.743 280.2C394.454 284.842 397.982 288.841 402.625 289.131C407.267 289.421 411.266 285.892 411.556 281.249Z" fill="black"/>
<path d="M379.16 295.5C378.188 296.014 377.816 297.218 378.33 298.19C379.513 300.429 380.475 303.362 378.34 304.618C377.499 305.114 376.356 305.262 375.198 305.022C372.548 304.475 370.682 302.538 370.445 300.088C370.358 299.194 369.682 298.468 368.796 298.319C367.911 298.167 367.034 298.63 366.657 299.446C365.225 302.546 363.89 303.769 361.556 304.118C359.769 304.385 357.671 303.855 357.008 302.066C356.459 300.587 357.305 298.972 358.743 297C359.39 296.112 359.196 294.867 358.307 294.219C357.42 293.571 356.175 293.766 355.526 294.654C354.34 296.281 351.872 299.665 353.275 303.449C354.299 306.212 356.888 307.954 360.031 308.151C360.713 308.193 361.421 308.163 362.145 308.054C364.863 307.647 366.698 306.387 368.034 304.803C369.432 306.864 371.663 308.357 374.392 308.92C376.532 309.363 378.652 309.054 380.359 308.048C384.028 305.888 384.585 301.507 381.849 296.33C381.335 295.358 380.13 294.987 379.16 295.5Z" fill="black"/>
<path d="M298.149 157.875C298.161 157.874 298.173 157.872 298.185 157.871C299.041 157.589 299.464 157.155 299.458 156.58C299.447 156.369 299.334 156.179 299.122 156.012C298.909 155.845 298.126 155.48 296.778 154.908C295.65 154.417 294.825 153.985 294.304 153.617C293.584 153.101 292.915 152.37 292.297 151.429C291.497 150.192 291.068 148.905 291.007 147.562C290.918 145.619 291.715 143.8 293.385 142.022C295.234 140.052 297.487 138.813 300.156 138.317C301.701 138.03 303.11 138.084 304.389 138.499C305.187 138.774 306.063 139.401 307.025 140.391C307.432 140.835 307.661 141.284 307.712 141.737C307.768 142.277 307.527 143 306.987 143.898C307 143.907 307.012 143.915 307.024 143.924C306.33 145.05 305.57 145.682 304.745 145.831C304.461 145.881 304.069 145.898 303.568 145.876C302.803 145.835 302.333 145.308 302.158 144.301C302.088 143.902 301.736 143.759 301.1 143.867C300.77 143.923 300.48 144.048 300.229 144.239C299.993 144.708 299.886 145.154 299.909 145.579C299.948 146.302 300.358 146.849 301.142 147.221C304.028 148.57 305.741 149.41 306.264 149.758C308.129 150.99 309.178 152.45 309.403 154.136C309.451 154.547 309.522 155.099 309.613 155.79C309.834 158.599 308.121 161.117 304.433 163.116C303.047 163.865 301.713 164.292 300.435 164.413C300.242 164.431 299.975 164.435 299.636 164.423C299.611 164.415 299.586 164.406 299.562 164.398C294.894 164.148 292.318 162.734 291.85 160.411C291.729 159.879 291.645 159.506 291.599 159.291C291.554 159.076 291.532 159.01 291.536 159.093C291.51 158.535 291.681 158.038 292.047 157.596C292.413 157.155 292.836 156.914 293.318 156.875C293.534 156.857 294.183 157.05 295.265 157.445C296.347 157.84 297.093 158.015 297.502 157.973C297.671 157.956 297.874 157.914 298.112 157.846C298.124 157.856 298.137 157.865 298.149 157.875Z" fill="#F48024"/>
<path d="M331.858 135.106C331.869 135.091 331.88 135.076 331.89 135.061C332.071 136.136 332.217 137.352 332.325 138.709C332.754 144.071 332.296 149.257 330.918 154.163C330.559 155.446 329.936 156.669 329.045 157.823C328.154 158.979 327.193 159.803 326.165 160.302C325.196 160.627 324.246 160.876 323.315 161.048C320.664 161.539 318.398 161.336 316.529 160.483C314.736 159.686 313.431 158.347 312.614 156.482C311.994 155.073 311.603 153.052 311.435 150.412C311.184 146.451 311.388 143.071 312.036 140.235C312.241 139.36 312.749 138.503 313.559 137.655C314.369 136.808 315.201 136.227 316.057 135.92C316.798 135.665 317.551 135.66 318.315 135.911C319.08 136.161 319.662 136.592 320.062 137.203C320.17 137.728 320.246 138.296 320.29 138.907C320.342 139.653 320.246 141.304 319.996 143.842C319.745 146.381 319.642 147.992 319.691 148.691C319.738 149.368 319.827 149.955 319.959 150.454C320.127 150.807 320.545 151.109 321.211 151.357C321.998 151.283 322.547 151.072 322.859 150.727C323.427 149.958 323.743 149.029 323.808 147.947C323.669 146.378 323.558 144.374 323.475 141.932C323.565 139.911 323.628 138.661 323.665 138.185C323.755 136.835 323.903 135.781 324.109 135.025C324.849 133.471 325.751 132.548 326.822 132.27C327.822 132.012 328.769 132.132 329.665 132.641C330.559 133.149 331.291 133.97 331.858 135.106Z" fill="#F48024"/>
<path d="M342.05 149.583C342.062 149.581 342.074 149.578 342.085 149.575C342.923 149.164 343.325 148.63 343.292 147.975C343.272 147.734 343.15 147.529 342.931 147.36C342.711 147.19 341.916 146.848 340.549 146.345C339.404 145.911 338.565 145.521 338.03 145.166C337.291 144.668 336.593 143.921 335.936 142.929C335.084 141.624 334.599 140.213 334.474 138.682C334.293 136.469 334.997 134.261 336.573 132.017C338.318 129.533 340.506 127.876 343.152 127.106C344.684 126.66 346.098 126.637 347.399 127.045C348.211 127.317 349.119 127.992 350.128 129.08C350.555 129.569 350.805 130.071 350.877 130.582C350.958 131.193 350.748 132.019 350.245 133.057C350.258 133.066 350.271 133.075 350.284 133.084C349.638 134.386 348.903 135.138 348.084 135.35C347.803 135.423 347.411 135.462 346.908 135.468C346.141 135.469 345.648 134.903 345.427 133.769C345.339 133.32 344.98 133.181 344.349 133.352C344.022 133.44 343.738 133.605 343.496 133.843C343.282 134.397 343.195 134.913 343.238 135.395C343.31 136.216 343.744 136.804 344.544 137.166C347.489 138.481 349.243 139.364 349.781 139.732C351.706 141.044 352.823 142.673 353.122 144.573C353.19 145.038 353.284 145.66 353.406 146.44C353.753 149.622 352.143 152.49 348.552 155.008C347.202 155.954 345.892 156.553 344.626 156.813C344.435 156.852 344.17 156.881 343.831 156.902C343.806 156.895 343.781 156.888 343.756 156.881C339.104 157.079 336.495 155.89 335.92 153.285C335.775 152.694 335.674 152.278 335.618 152.039C335.563 151.8 335.539 151.728 335.546 151.821C335.494 151.186 335.639 150.59 335.981 150.031C336.322 149.472 336.73 149.135 337.206 149.025C337.42 148.975 338.071 149.107 339.164 149.424C340.257 149.742 341.006 149.858 341.411 149.766C341.577 149.728 341.778 149.658 342.012 149.555C342.024 149.565 342.037 149.574 342.05 149.583Z" fill="#F48024"/>
<path d="M354.85 126.708C354.839 126.711 354.827 126.714 354.816 126.717C355.735 125.349 356.973 124.451 358.533 124.046C359.838 123.708 360.811 123.657 361.456 123.887C362.205 124.455 362.685 125.527 362.89 127.093C362.876 128.373 362.938 130.064 363.078 132.163C363.473 133.22 363.952 133.689 364.518 133.568C364.73 133.523 365.048 133.339 365.471 133.014C365.717 132.833 365.864 132.266 365.911 131.314C365.633 130.012 365.352 128.202 365.067 125.884C365.025 124.532 365.678 123.199 367.024 121.888C367.286 121.644 367.961 121.37 369.054 121.075C369.869 120.869 370.421 120.777 370.71 120.795C371.794 120.883 372.591 121.628 373.099 123.023C373.264 123.445 373.442 123.864 373.63 124.282C373.934 125.105 374.145 125.962 374.265 126.847C374.801 130.489 375.169 133.229 375.366 135.063C375.784 138.941 375.639 143.307 374.914 148.112C374.684 149.599 373.725 150.643 372.04 151.272C370.964 151.685 370.066 151.698 369.345 151.312C368.368 150.808 367.734 149.83 367.439 148.369C367.349 147.968 367.304 147.234 367.305 146.165C367.304 145.097 367.271 144.36 367.206 143.954C366.994 143.339 366.573 143.089 365.943 143.206C365.337 143.318 364.822 143.662 364.398 144.233C363.974 144.806 363.812 145.47 363.913 146.227C364.082 146.713 364.34 147.583 364.684 148.842C364.89 149.686 364.922 150.353 364.776 150.843C364.559 151.579 364.142 152.152 363.527 152.567C363.118 152.844 362.339 153.08 361.191 153.284C360.092 153.48 359.145 153.245 358.352 152.58C357.691 152.017 357.083 151.005 356.532 149.542C355.892 147.92 355.45 146.075 355.205 143.999C354.848 141.009 354.568 138.446 354.365 136.31C353.915 131.568 354.078 128.37 354.85 126.708Z" fill="#F48024"/>
<path d="M386.518 123.202C386.645 124.31 386.822 125.659 387.053 127.248C387.283 128.839 387.425 129.864 387.478 130.323C388.115 135.674 388.342 140.488 388.149 144.737C388.027 147.491 387.102 149.176 385.378 149.836C384.854 149.928 384.495 149.982 384.302 149.997C381.868 150.186 380.363 149.103 379.783 146.681C378.769 142.517 378.093 138.748 377.746 135.344C377.379 131.757 377.282 128.543 377.45 125.692C377.671 124.755 377.891 123.816 378.111 122.876C379.116 120.688 380.74 119.391 382.997 119.064C383.514 118.99 383.979 118.98 384.392 119.034C385.09 119.295 385.599 119.875 385.916 120.767C386.116 121.578 386.317 122.389 386.518 123.202Z" fill="#F48024"/>
<path d="M324.99 170.871C325.002 170.869 325.014 170.867 325.026 170.865C325.091 171.187 325.119 171.613 325.109 172.144C325.064 173.255 324.762 174.137 324.203 174.783C323.984 175.031 323.019 175.421 321.306 175.916C319.593 176.409 318.71 176.682 318.661 176.774C318.607 177.019 318.827 179.251 319.329 183.505C319.429 184.365 319.469 185.231 319.449 186.1C319.404 188.08 319.079 189.734 318.469 191.045C317.708 192.69 316.625 193.512 315.224 193.51C312.953 193.512 311.387 192.89 310.53 191.714C309.881 190.83 309.575 189.432 309.61 187.516C309.605 187.685 309.687 186.579 309.856 184.195C309.958 182.845 310.059 181.494 310.16 180.142C310.294 178.873 310.483 177.77 310.726 176.828C310.582 176.879 310.366 176.911 310.079 176.926C309.268 176.968 308.46 176.888 307.656 176.687C306.569 176.412 305.833 175.972 305.449 175.381C304.906 174.545 304.649 173.755 304.675 173.012C304.719 171.77 305.538 170.793 307.128 170.022C309.176 169.017 311.62 168.372 314.467 168.067C315.961 167.907 317.523 167.846 319.154 167.89C319.93 168.047 321.108 168.289 322.688 168.605C324.004 169.047 324.772 169.799 324.99 170.871Z" fill="#F48024"/>
<path d="M337.015 169.003C337.006 169.945 337.018 171.089 337.053 172.436C337.088 173.783 337.103 174.653 337.1 175.043C337.081 179.589 336.719 183.711 336.008 187.37C335.551 189.741 334.425 191.255 332.631 191.897C332.099 191.999 331.736 192.058 331.543 192.078C329.101 192.325 327.74 191.401 327.462 189.359C326.965 185.842 326.758 182.659 326.831 179.784C326.906 176.753 327.203 174.037 327.719 171.62C328.052 170.822 328.385 170.022 328.718 169.219C329.981 167.335 331.749 166.172 334.026 165.735C334.548 165.635 335.01 165.591 335.413 165.604C336.074 165.772 336.508 166.224 336.714 166.963C336.814 167.643 336.914 168.323 337.015 169.003Z" fill="#F48024"/>
<path d="M365.644 183.053C365.656 184.351 365.412 185.393 364.911 186.177C364.506 186.8 363.978 187.236 363.327 187.489C362.99 187.629 362.496 187.813 361.844 188.041C361.338 188.228 361.012 188.329 360.867 188.347C359.828 188.477 358.943 188.115 358.214 187.27C357.485 186.425 357.119 185.313 357.113 183.923C357.111 183.388 357.239 182.127 357.495 180.134C357.705 178.588 357.711 177.389 357.516 176.542C357.397 176.928 357.03 178.1 356.413 180.046C355.604 182.508 354.873 184.03 354.224 184.632C353.863 184.974 353.43 185.181 352.924 185.254C352.538 185.309 352.14 185.235 351.73 185.03C350.429 183.875 349.419 181.438 348.706 177.729C348.585 178.345 348.524 178.96 348.523 179.578C348.522 179.935 348.616 181.048 348.806 182.922C348.949 184.256 348.948 185.341 348.802 186.17C348.607 187.245 348.087 188.245 347.24 189.164C346.394 189.751 345.584 190.092 344.811 190.193C343.747 190.331 342.771 189.999 341.883 189.206C340.903 187.704 340.333 186.706 340.169 186.195C339.815 185.201 339.647 183.663 339.662 181.579C339.677 179.656 339.871 176.229 340.241 171.273C340.372 169.558 340.912 168.014 341.859 166.625C342.805 165.237 344.074 164.148 345.665 163.362C348.82 162.591 351.212 164.789 352.867 170.091C352.985 169.033 353.352 167.591 353.968 165.751C354.866 163.057 355.882 161.297 357.018 160.494C358.132 159.915 359.08 159.541 359.862 159.376C361.166 159.101 362.165 159.314 362.86 160.017C363.769 160.702 364.408 161.7 364.777 163.002C365.022 163.879 365.191 165.322 365.281 167.33C365.322 169.172 365.363 171.014 365.404 172.856C365.537 176.932 365.617 180.32 365.642 183.015C365.643 183.028 365.644 183.04 365.644 183.053Z" fill="#F48024"/>
<path d="M383.906 167.399C384.009 167.783 384.053 168.188 384.038 168.61C384.066 170.003 383.574 171.214 382.562 172.246C381.645 173.218 380.645 173.687 379.564 173.665C379.369 173.606 379.01 173.63 378.483 173.737C378.537 174.043 378.468 174.88 378.273 176.245C378.284 176.865 378.544 177.305 379.054 177.569C380.034 177.193 380.838 177.123 381.47 177.359C382.462 177.697 383.017 178.367 383.132 179.355C383.274 180.473 382.996 181.638 382.294 182.845C381.594 184.052 380.609 185.084 379.343 185.949C378.219 186.726 376.882 187.17 375.336 187.298C373.982 187.41 372.757 187.254 371.664 186.828C371.202 186.645 370.504 186.004 369.574 184.919C368.563 183.312 368.02 179.773 367.937 174.276C367.879 171.114 368.092 167.461 368.57 163.291C368.853 160.872 369.476 159.215 370.441 158.327C372.42 157.75 374.398 157.188 376.375 156.648C377.391 156.251 378.362 155.981 379.287 155.843C381.137 155.565 382.238 155.931 382.59 156.908C382.74 157.309 382.82 157.771 382.83 158.295C382.853 159.421 382.49 160.383 381.741 161.181C380.993 161.98 379.94 162.461 378.582 162.644C378.248 162.689 377.987 162.725 377.796 162.752C377.636 163.159 377.55 163.786 377.541 164.633C377.511 165.714 377.485 166.332 377.464 166.488C377.541 166.837 377.795 167.035 378.227 167.083C378.91 166.402 379.775 165.996 380.826 165.875C382.044 165.735 383.069 166.242 383.906 167.399Z" fill="#F48024"/>
<path d="M395.316 179.704C395.697 180.493 395.901 181.363 395.925 182.31C395.947 183.15 395.825 184 395.558 184.858C394.699 186.19 393.217 186.822 391.114 186.822C390.654 186.822 390.194 186.797 389.734 186.749C388.019 185.781 387.046 184.335 386.811 182.359C386.826 181.988 386.791 181.447 386.704 180.737C387.17 178.868 388.383 177.636 390.343 177.094C391.79 177.238 392.731 177.403 393.168 177.56C394.188 177.953 394.903 178.673 395.316 179.704ZM396.181 155.294C396.193 155.28 396.205 155.266 396.216 155.252C396.689 156.074 396.941 157.034 396.971 158.121C396.993 158.964 396.823 160.331 396.455 162.215C396.088 164.099 395.928 165.512 395.977 166.46C395.543 169.913 395.323 172.564 395.324 174.431C395.131 175.325 394.328 175.876 392.916 176.111C392.486 176.199 392.078 176.247 391.694 176.256C390.42 176.286 389.438 175.936 388.749 175.195C388.159 174.583 387.793 173.276 387.653 171.267C387.708 170.468 387.724 169.604 387.704 168.675C387.682 167.668 387.583 166.214 387.411 164.316C387.238 162.419 387.142 161.008 387.121 160.081C387.082 158.28 387.237 156.646 387.585 155.173C387.61 155.211 387.635 155.248 387.659 155.285C387.885 154.757 388.055 154.406 388.17 154.234C388.422 153.783 388.729 153.477 389.094 153.321C389.458 153.165 389.866 153.065 390.316 153.024C390.743 152.985 391.765 153.063 393.387 153.3C394.726 153.719 395.658 154.394 396.181 155.294Z" fill="#F48024"/>
<path d="M388.822 88.6968C389.843 88.6968 390.67 87.8692 390.67 86.8484C390.67 85.8275 389.843 85 388.822 85C387.801 85 386.973 85.8275 386.973 86.8484C386.973 87.8692 387.801 88.6968 388.822 88.6968Z" fill="#F48024"/>
<path d="M329.563 98.4168C330.747 98.4168 331.707 97.457 331.707 96.2731C331.707 95.0892 330.747 94.1294 329.563 94.1294C328.379 94.1294 327.419 95.0892 327.419 96.2731C327.419 97.457 328.379 98.4168 329.563 98.4168Z" fill="#F48024"/>
<path d="M295.829 138.797C296.393 138.797 296.85 138.34 296.85 137.776C296.85 137.212 296.393 136.755 295.829 136.755C295.265 136.755 294.808 137.212 294.808 137.776C294.808 138.34 295.265 138.797 295.829 138.797Z" fill="#F48024"/>
<path d="M322.9 160C323.324 160 323.667 159.657 323.667 159.233C323.667 158.809 323.324 158.465 322.9 158.465C322.476 158.465 322.132 158.809 322.132 159.233C322.132 159.657 322.476 160 322.9 160Z" fill="black"/>
<path d="M336.957 132.001C338.023 132.001 338.888 131.137 338.888 130.07C338.888 129.004 338.023 128.14 336.957 128.14C335.891 128.14 335.026 129.004 335.026 130.07C335.026 131.137 335.891 132.001 336.957 132.001Z" fill="black"/>
<path d="M365.657 125.756C366.092 125.756 366.444 125.404 366.444 124.969C366.444 124.534 366.092 124.182 365.657 124.182C365.223 124.182 364.87 124.534 364.87 124.969C364.87 125.404 365.223 125.756 365.657 125.756Z" fill="black"/>
<path d="M400.471 144.854C401.008 144.854 401.443 144.419 401.443 143.882C401.443 143.345 401.008 142.91 400.471 142.91C399.934 142.91 399.499 143.345 399.499 143.882C399.499 144.419 399.934 144.854 400.471 144.854Z" fill="black"/>
<path d="M392.518 119.006C393.321 119.006 393.972 118.355 393.972 117.552C393.972 116.749 393.321 116.098 392.518 116.098C391.715 116.098 391.064 116.749 391.064 117.552C391.064 118.355 391.715 119.006 392.518 119.006Z" fill="black"/>
<path d="M289.618 311.654L287.423 310.695C287.073 310.542 286.775 310.292 286.562 309.974L285.232 307.983C284.355 306.67 282.373 306.846 281.74 308.292L280.781 310.487C280.628 310.837 280.378 311.136 280.06 311.348L278.069 312.679C276.756 313.556 276.932 315.538 278.379 316.17L280.573 317.129C280.923 317.282 281.222 317.532 281.434 317.85L282.765 319.842C283.642 321.155 285.624 320.979 286.256 319.532L287.215 317.337C287.368 316.987 287.618 316.688 287.936 316.476L289.927 315.146C291.24 314.268 291.065 312.287 289.618 311.654Z" fill="white"/>
<path d="M383.726 240.82L382.371 238.845C382.155 238.53 382.034 238.16 382.022 237.778L381.947 235.384C381.897 233.806 380.122 232.906 378.82 233.8L376.845 235.155C376.53 235.371 376.16 235.492 375.778 235.504L373.384 235.579C371.806 235.629 370.906 237.404 371.8 238.706L373.154 240.681C373.371 240.996 373.492 241.366 373.504 241.748L373.579 244.142C373.629 245.72 375.404 246.62 376.706 245.726L378.681 244.371C378.996 244.155 379.366 244.034 379.748 244.022L382.142 243.947C383.72 243.897 384.62 242.122 383.726 240.82Z" fill="white"/>
</svg>
