<svg width="100" height="86" viewBox="0 0 100 86" fill="none" xmlns="http://www.w3.org/2000/svg">
<path d="M84.4835 26.1188C82.9853 24.0213 82.0864 21.6242 81.7868 19.0773C81.0876 12.0357 81.0876 5.04402 78.0912 2.04759C73.9961 -0.399482 67.7535 5.94294 66.9545 5.99288C64.0579 6.04282 56.7167 5.04402 49.4254 5.04402C42.1341 5.04402 34.8428 6.04282 31.8963 5.99288C31.0474 5.99288 24.8548 -0.399482 20.7597 2.04759C17.7133 5.04402 17.7632 12.0357 17.0641 19.0773C16.7644 21.6242 15.8655 24.0213 14.3673 26.1188C7.87504 35.4077 9.62296 44.9963 11.3209 46.2448C13.2187 47.5932 23.2567 45.9452 27.7513 43.9475C34.9927 40.7014 39.1377 31.3126 49.4254 31.3126C59.7131 31.3126 63.8582 40.7014 71.0995 43.9475C75.5942 45.9452 85.6322 47.6431 87.5299 46.2448C89.2279 44.9963 90.9758 35.4077 84.4835 26.1188Z" fill="#F0844E"/>
<path d="M79.889 14.4827C61.5609 12.2854 49.4254 12.3353 49.4254 12.3353C49.4254 12.3353 37.2899 12.2854 18.9618 14.4827L18.6621 25.8192C18.6621 25.8192 44.681 24.9702 49.3754 25.0701C54.0698 24.9702 80.0887 25.8192 80.0887 25.8192L79.889 14.4827Z" fill="white"/>
<path d="M89.4285 38.4541C89.1288 37.4053 88.7792 36.4065 88.2798 35.4077C87.331 33.5599 86.1324 31.812 84.784 30.2139L83.7852 29.0653L82.7364 27.9167L82.4867 27.617C82.4368 27.5171 82.3369 27.4672 82.287 27.3673C82.1372 27.2175 81.9873 27.0677 81.8875 26.8679C81.6378 26.5183 81.4879 26.1188 81.3381 25.7193C81.1384 25.12 80.9885 24.4708 80.9885 23.8215V20.076C80.9885 15.9809 80.6889 11.8858 80.0397 7.84063C79.8399 6.79189 79.5902 5.79308 79.2906 4.79427C78.9909 3.74553 78.4915 2.69678 77.8922 1.79785C77.7424 1.54815 77.5427 1.29845 77.2929 1.09869C77.0432 0.848986 76.7935 0.649224 76.4939 0.499403C76.1943 0.299642 75.8946 0.199762 75.545 0.0998811C75.3453 0.0499407 75.1955 0.0499403 74.9957 0H74.5462C73.3477 0.0499403 72.249 0.449464 71.2502 1.09869C69.3524 2.29726 68.054 3.89535 66.6057 5.29368C65.9066 5.9429 65.1574 6.64207 64.5082 6.79189C64.4083 6.79189 64.3584 6.84183 64.2585 6.84183H63.9589L63.2098 6.74195C62.7104 6.69201 62.161 6.64207 61.6616 6.64207C59.6141 6.54219 57.6165 6.44231 55.5689 6.44231L52.5225 6.39237H46.4798L43.4334 6.44231C41.3858 6.49225 39.3882 6.54219 37.3407 6.64207C36.8413 6.69201 36.3419 6.69201 35.7925 6.74195L35.0434 6.84183H34.7438C34.6439 6.84183 34.594 6.84183 34.4941 6.79189C33.695 6.49225 32.9459 5.99284 32.3966 5.29368C30.9983 3.94529 29.6499 2.29726 27.7521 1.09869C26.7533 0.449464 25.6546 0.0499403 24.4561 0H24.0066C23.8068 0 23.657 0.0499407 23.4573 0.0998811C23.1077 0.199762 22.808 0.299642 22.5084 0.499403C22.2088 0.649224 21.959 0.848986 21.7093 1.09869C21.5096 1.29845 21.3098 1.54815 21.1101 1.79785C20.5108 2.74672 20.0114 3.74553 19.7117 4.79427C19.4121 5.79308 19.1624 6.84183 18.9626 7.84063C18.3134 11.8858 17.9638 15.9809 18.0138 20.076V23.8215C18.0138 24.4708 17.8639 25.12 17.6642 25.7193C17.5144 26.1188 17.3146 26.5183 17.1148 26.8679C17.015 27.0677 16.8651 27.2175 16.7153 27.3673C16.6654 27.4672 16.5655 27.5171 16.5156 27.617L16.2659 27.9167L15.2171 29.0653L14.2183 30.2139C12.8699 31.812 11.6713 33.5599 10.7225 35.4077C10.2231 36.3566 9.87349 37.4053 9.57385 38.4541C9.32414 39.5528 9.22426 40.6514 9.2742 41.7501C9.32414 42.2995 9.42402 42.8488 9.52391 43.3982C9.67373 43.9475 9.82354 44.397 9.97337 44.9463C10.3229 45.9451 10.7225 46.894 11.1719 47.8428C12.0709 49.6906 13.1196 51.4885 14.3182 53.1865C15.5167 54.8844 16.8152 56.4326 18.2135 57.9308C19.6119 59.429 21.2099 60.7275 22.9079 61.8761L23.2076 61.4766C21.8592 59.9784 20.5607 58.4801 19.2623 56.932C17.9638 55.4338 16.7653 53.8357 15.6666 52.1877C14.5679 50.5396 13.619 48.8417 12.77 47.0438C12.3705 46.1449 12.0209 45.246 11.7213 44.2971C11.5715 43.8476 11.4216 43.3482 11.3218 42.8988C11.2219 42.4493 11.1719 41.9998 11.122 41.5504C11.0721 40.6514 11.1719 39.7525 11.4216 38.8536C11.6713 37.9547 12.0209 37.0557 12.4704 36.2567C13.4192 34.5587 14.5179 32.9606 15.7664 31.5124L16.7153 30.4137L17.7141 29.3649L17.9638 29.1152C18.0637 29.0153 18.1636 28.9155 18.2635 28.7656C18.4632 28.5659 18.663 28.3162 18.8128 28.0665C19.1624 27.5671 19.4121 27.0677 19.6119 26.5183C19.9115 25.7193 20.0613 24.8204 20.1113 23.9714V20.126C20.0613 16.1307 20.361 12.1854 20.9602 8.24016C21.1101 7.29129 21.3598 6.34243 21.6095 5.39356C21.8592 4.49463 22.2087 3.64565 22.7082 2.89654C22.808 2.74672 22.9579 2.5969 23.0577 2.44708C23.1576 2.29726 23.3074 2.19738 23.4573 2.09749C23.5571 1.99761 23.707 1.94767 23.8568 1.89773C23.9067 1.89773 24.0066 1.89773 24.0565 1.84779H24.3562C25.2052 1.89773 26.0542 2.14744 26.7533 2.5969C28.3514 3.49582 29.6998 4.99404 31.248 6.39237C31.6475 6.74195 32.047 7.09153 32.4965 7.39117C32.9959 7.74075 33.5452 7.99046 34.1445 8.14028C34.2943 8.19022 34.4941 8.19022 34.6439 8.19022H34.8936C34.9935 8.19022 35.0434 8.19022 35.0934 8.14028L35.8425 8.0404L37.3407 7.89058C39.3383 7.69081 41.3359 7.54099 43.3335 7.39117L46.3299 7.19141L47.8281 7.09153L48.5773 7.04159H50.0755L50.8246 7.09153L52.3228 7.19141L55.3192 7.39117C57.3168 7.54099 59.3644 7.69081 61.312 7.89058L62.8103 8.0404L63.5594 8.14028C63.6093 8.14028 63.7092 8.14028 63.7591 8.19022H64.0088C64.1586 8.19022 64.3584 8.19022 64.5082 8.14028C65.1075 7.99046 65.6569 7.74075 66.1563 7.39117C66.6057 7.09153 67.0052 6.74195 67.4048 6.39237C68.9529 4.99404 70.3013 3.49582 71.8994 2.5969C72.6485 2.14744 73.4475 1.89773 74.2965 1.84779H74.5962C74.6461 1.84779 74.746 1.89773 74.7959 1.89773C74.9458 1.94767 75.0956 1.99761 75.1955 2.09749C75.3453 2.19738 75.4951 2.29726 75.595 2.44708C75.7448 2.5969 75.8447 2.74672 75.9446 2.89654C76.444 3.64565 76.7935 4.49463 77.0432 5.39356C77.2929 6.34243 77.5427 7.29129 77.6925 8.24016C78.2918 12.1854 78.5914 16.1307 78.5415 20.126V23.9714C78.5914 24.8204 78.7412 25.7193 79.0409 26.5183C79.2406 27.0677 79.4903 27.617 79.8399 28.0665C79.9897 28.3162 80.1895 28.5659 80.3892 28.7656C80.4891 28.8655 80.589 28.9654 80.6889 29.1152L80.9386 29.3649L81.9374 30.4137L82.8863 31.5124C84.1847 32.9606 85.2834 34.5587 86.1823 36.2567C86.5819 37.1057 86.9314 37.9547 87.2311 38.8536C87.4808 39.7525 87.5807 40.6514 87.5307 41.5504C87.4808 41.9998 87.4308 42.4493 87.331 42.8988C87.2311 43.3482 87.0813 43.7977 86.9314 44.2971C86.6318 45.246 86.2822 46.1449 85.8827 47.0438C85.0836 48.8417 84.0848 50.5396 82.9861 52.1877C81.8875 53.8357 80.639 55.3838 79.3904 56.932C78.1419 58.4801 76.7935 59.9784 75.4452 61.4766L75.7448 61.8761C77.4428 60.7275 79.0409 59.429 80.4392 57.9308C81.8375 56.4326 83.136 54.8345 84.3345 53.1865C85.5331 51.4885 86.5818 49.6906 87.4808 47.8428C87.9302 46.894 88.3298 45.9451 88.6793 44.9463C88.8791 44.4469 89.0289 43.8976 89.1288 43.3982C89.2786 42.8488 89.3286 42.2995 89.3785 41.7501C89.7281 40.7014 89.778 39.5528 89.4285 38.4541Z" fill="black"/>
<path d="M35.7424 28.0166C36.3916 27.8668 37.0908 27.8168 37.74 27.9167C38.4392 27.9667 39.0884 28.1664 39.7376 28.4161C41.086 28.9155 42.1348 29.9143 42.7341 31.2128C42.784 31.3626 42.734 31.5124 42.5842 31.5624C42.4843 31.6123 42.3845 31.6123 42.3345 31.5124C41.8351 31.1628 41.3357 30.8133 40.7864 30.5636C40.287 30.3138 39.7376 30.1141 39.1883 29.9143C38.6389 29.7645 38.0397 29.6147 37.4903 29.5148C36.891 29.4149 36.2917 29.315 35.6925 29.1652C35.3928 29.0653 35.1931 28.7657 35.243 28.4661C35.3429 28.2164 35.5426 28.0166 35.7424 28.0166Z" fill="black"/>
<path d="M23.7567 6.14271C24.6556 3.64569 28.451 5.94295 29.5997 7.79074C30.998 10.088 24.9053 13.3841 23.6068 12.2354C22.3084 11.0369 23.0076 8.14032 23.7567 6.14271Z" fill="white"/>
<path d="M44.6815 29.4648C45.8399 29.4648 46.779 28.6599 46.779 27.667C46.779 26.6741 45.8399 25.8691 44.6815 25.8691C43.5231 25.8691 42.584 26.6741 42.584 27.667C42.584 28.6599 43.5231 29.4648 44.6815 29.4648Z" fill="white"/>
<path d="M63.1588 29.1153C62.5595 29.2651 61.9602 29.365 61.3609 29.4649C60.8116 29.5648 60.2123 29.7146 59.6629 29.8644C59.1136 30.0142 58.5643 30.214 58.0649 30.5136C57.5155 30.8133 57.0161 31.1129 56.5167 31.4625C56.4168 31.5624 56.267 31.5124 56.1671 31.4125C56.1172 31.3626 56.1172 31.2627 56.1172 31.1628C56.7165 29.8644 57.8152 28.8656 59.1136 28.3662C59.7628 28.1165 60.4121 27.9167 61.1112 27.8668C61.7604 27.8168 62.4596 27.8168 63.1088 27.9667C63.4085 28.0665 63.6082 28.3662 63.5583 28.6658C63.5583 28.9155 63.4085 29.1153 63.1588 29.1153Z" fill="black"/>
<path d="M75.1449 6.14271C74.2459 3.64569 70.4505 5.94295 69.3018 7.79074C67.9035 10.088 73.9962 13.3841 75.2947 12.2354C76.6431 11.0369 75.894 8.14032 75.1449 6.14271Z" fill="white"/>
<path d="M54.2196 29.4648C55.378 29.4648 56.3171 28.6599 56.3171 27.667C56.3171 26.6741 55.378 25.8691 54.2196 25.8691C53.0611 25.8691 52.1221 26.6741 52.1221 27.667C52.1221 28.6599 53.0611 29.4648 54.2196 29.4648Z" fill="white"/>
<path d="M49.4751 23.6218C51.9574 23.6218 53.9697 21.6095 53.9697 19.1272C53.9697 16.6449 51.9574 14.6326 49.4751 14.6326C46.9928 14.6326 44.9805 16.6449 44.9805 19.1272C44.9805 21.6095 46.9928 23.6218 49.4751 23.6218Z" fill="#B01F17"/>
<path d="M29.0003 65.8713C30.7982 65.9712 32.596 66.121 34.3439 66.171C35.2429 66.2209 36.1418 66.2709 36.9908 66.2709C37.8897 66.3208 38.7387 66.3208 39.6376 66.3208C43.1834 66.3707 46.7291 66.2708 50.2749 66.121C53.8207 65.9712 57.3664 65.6716 60.9621 65.3719C64.5578 65.0723 68.1036 64.7227 71.7492 64.473C72.5483 64.4231 73.2475 64.9724 73.2974 65.7714C73.3473 66.4207 72.9478 67.0699 72.2986 67.2697C68.8028 68.3683 65.2071 69.2173 61.5614 69.8166C57.9158 70.4658 54.2202 70.8654 50.5246 71.0651C46.7791 71.2649 43.0335 71.165 39.338 70.7655C35.5924 70.366 31.9468 69.5669 28.401 68.3184C27.7518 68.0687 27.4022 67.3196 27.602 66.6704C27.9016 66.171 28.451 65.8713 29.0003 65.8713Z" fill="#B01F17"/>
<path d="M70.5502 72.6632C70.4503 72.5633 70.3005 72.6132 70.2006 72.7131C68.9022 74.6109 67.404 76.4087 65.756 78.0068C64.1079 79.6049 62.2601 80.9533 60.2126 82.002C58.215 82.901 55.9676 83.1506 53.8202 82.8011C51.5729 82.5014 49.3755 81.9021 47.278 81.0532L46.479 80.7535C46.1793 80.6536 45.9296 80.5538 45.5801 80.4539C45.5301 80.4539 45.4802 80.4039 45.3803 80.4039H44.831C44.7311 80.4539 44.5813 80.4539 44.4814 80.5538C44.3316 80.6536 44.2317 80.7535 44.1318 80.8534C43.982 81.0032 43.932 81.2529 43.932 81.4527V81.7523C43.932 81.8522 43.982 81.9021 43.982 82.002C44.0319 82.1518 44.0818 82.3516 44.1817 82.5014L44.4814 83.2505C44.5813 83.4004 44.6312 83.6001 44.6811 83.7999H44.4314C44.1817 83.7499 43.932 83.7 43.7323 83.6001C42.7335 83.2006 41.7347 82.6513 40.8857 82.002C39.9368 81.3528 39.0878 80.6037 38.2388 79.8546C36.5409 78.3064 34.8928 76.6584 33.2947 75.0104C32.4957 74.1614 31.6966 73.3623 30.8976 72.5134L29.749 71.2649C29.5991 71.0152 29.3494 70.8154 29.0997 70.6656C28.9499 70.6156 28.7502 70.5657 28.6003 70.5157C28.3506 70.5157 28.1009 70.5157 27.8512 70.5657C27.7014 70.6156 27.5516 70.7155 27.4517 70.8653C27.3518 71.115 27.252 71.3647 27.252 71.6144C27.252 71.8142 27.252 71.964 27.3019 72.1638C27.4018 72.4634 27.6015 72.7131 27.8013 72.9129C28.2008 73.3623 28.5504 73.8118 28.9499 74.2613C29.749 75.1602 30.598 76.0092 31.4469 76.8082C33.1449 78.4563 34.9927 80.0044 36.8904 81.4527C37.8393 82.1518 38.8381 82.851 39.8869 83.5002C40.9356 84.1994 42.0343 84.7487 43.2329 85.1483C43.5824 85.2482 43.8821 85.348 44.2317 85.398C44.6811 85.4979 45.1306 85.4479 45.5801 85.2981C45.8797 85.1483 46.1793 84.9485 46.3292 84.6489C46.479 84.3992 46.5289 84.1495 46.5789 83.8498V83.1007H46.6288C48.9261 83.8998 51.3232 84.4491 53.7203 84.6489C54.9688 84.7487 56.2173 84.7487 57.4159 84.549C58.6644 84.3492 59.863 83.9497 60.9617 83.3504C63.0592 82.1518 64.9569 80.6037 66.555 78.8058C68.1531 77.0579 69.5514 75.1103 70.7001 73.0128C70.7001 72.8629 70.6501 72.7631 70.5502 72.6632ZM44.781 83.7C44.8309 83.7 44.831 83.7 44.831 83.6501L44.781 83.7Z" fill="black"/>
<path d="M1.78274 76.9082C-0.764218 77.2078 -1.3635 72.6632 5.32851 68.1187C7.37606 66.6704 9.7732 65.7215 12.2702 65.322C22.7077 63.8737 27.8516 73.3624 26.9027 75.5098C24.7054 79.3053 20.011 71.8642 12.2702 72.9629C8.92421 73.4623 5.67809 74.6608 2.83149 76.5086C2.53185 76.7084 2.13232 76.8582 1.78274 76.9082Z" fill="#F0844E"/>
<path d="M27.5516 78.3065L27.3019 77.2577L27.1521 76.7084L26.9523 76.209C26.5028 74.8106 25.8037 73.4623 24.9047 72.3136C24.0058 71.0651 22.9071 70.0164 21.6586 69.2173C20.3602 68.4183 18.9618 67.8689 17.4636 67.5693C14.5172 67.02 11.4209 67.4694 8.72408 68.7679C6.0273 70.0164 3.73004 72.014 2.18189 74.5609C0.633742 77.058 -0.0654229 79.9545 0.184279 82.851C0.184279 83.0009 0.284159 83.1007 0.433981 83.1007C0.533861 83.1007 0.633742 83.0009 0.683682 82.901C0.883444 81.5526 1.23303 80.2541 1.73243 79.0056C3.23064 75.36 6.07724 72.4635 9.67294 70.8654C12.0201 69.8166 14.5671 69.467 17.1141 69.8166C18.3626 70.0164 19.5611 70.4159 20.6598 71.0152C21.7585 71.6644 22.7074 72.4635 23.5064 73.4623C24.3055 74.4611 24.9547 75.6097 25.3542 76.8083L25.554 77.2577L25.7038 77.7072L25.9535 78.6561C26.1033 79.2054 26.1033 79.8047 26.0534 80.354C25.9535 80.8534 25.7038 81.3029 25.3043 81.6525C24.8548 82.0021 24.3055 82.3017 23.7561 82.4515C22.5076 82.851 21.2092 83.0508 19.9107 83.1507C19.661 83.1507 19.4113 83.2006 19.1616 83.2006C19.2615 82.7512 19.2615 82.3516 19.2115 81.9022C19.1616 81.4527 19.1117 81.0532 19.0118 80.6037C18.812 79.7547 18.5124 78.9557 18.0629 78.2066C17.963 78.0568 17.7633 78.0068 17.6135 78.1067C17.5136 78.1567 17.4636 78.2565 17.4636 78.3564C17.3638 79.1555 17.3638 80.0044 17.3638 80.8035V81.9521C17.3638 82.3017 17.3638 82.6513 17.4137 83.0009V83.1007C17.4137 83.1507 17.4137 83.2006 17.4636 83.2006C15.5659 83.2506 13.6182 83.2006 11.7205 83.2506H9.27342C9.32336 82.901 9.32336 82.6013 9.27342 82.2518C9.22348 81.8023 9.17354 81.4028 9.07366 80.9533C8.8739 80.1043 8.57426 79.3053 8.12479 78.5562C8.02491 78.4064 7.82515 78.3564 7.67533 78.4563C7.57545 78.5062 7.52551 78.6061 7.52551 78.706C7.42563 79.505 7.42563 80.354 7.42563 81.1531V82.3017C7.42563 82.6013 7.42563 82.901 7.47557 83.2006C6.12718 83.2006 4.77879 83.2006 3.4304 83.2506C3.08082 83.2506 2.78118 83.5502 2.78118 83.8998C2.78118 84.2494 3.03088 84.4991 3.38046 84.549C6.12718 84.6489 8.92384 84.6988 11.6706 84.7488C14.4173 84.7987 17.2139 84.8986 20.0106 84.6988C21.4589 84.6489 22.9071 84.3992 24.3055 83.9497C25.0546 83.7 25.8037 83.3504 26.403 82.8011C26.7525 82.5015 27.0022 82.2018 27.2519 81.8023C27.4517 81.4028 27.6515 81.0032 27.7514 80.5538C27.8013 79.8047 27.7014 79.0556 27.5516 78.3065Z" fill="black"/>
<path d="M98.2175 75.6596C100.764 75.9593 101.364 71.4147 94.6718 66.8701C92.6242 65.4219 90.2271 64.473 87.7301 64.0735C77.2925 62.6252 72.1487 72.1139 73.0975 74.2613C75.2949 78.0568 79.9893 70.6157 87.7301 71.7143C91.0761 72.2137 94.3222 73.4123 97.1688 75.2601C97.4684 75.4599 97.818 75.6097 98.2175 75.6596Z" fill="#F0844E"/>
<path d="M99.5164 77.2577C99.1668 75.8095 98.6175 74.4611 97.8184 73.2125C96.2703 70.6656 93.973 68.668 91.2762 67.4195C88.5795 66.121 85.4832 65.7215 82.5367 66.2209C81.0385 66.5205 79.6401 67.0699 78.3417 67.8689C77.0432 68.668 75.9446 69.7167 75.0956 70.9652C74.1966 72.1638 73.5474 73.4623 73.048 74.8606L72.8483 75.36L72.6984 75.9093L72.4487 76.9581C72.249 77.7571 72.249 78.5562 72.3988 79.3552C72.4987 79.8047 72.6485 80.2042 72.8982 80.6037C73.1479 80.9533 73.4475 81.3029 73.7472 81.6025C74.3465 82.1019 75.0956 82.5015 75.8447 82.7512C77.243 83.1507 78.6913 83.4004 80.1395 83.5003C82.9861 83.7 85.7329 83.6001 88.4796 83.5502C91.2263 83.5003 94.023 83.4503 96.7697 83.3504C97.1193 83.3504 97.369 83.1007 97.369 82.7512V82.7012C97.369 82.3516 97.0693 82.1019 96.7197 82.1019C95.5212 82.1019 94.3226 82.1019 93.174 82.052C93.174 81.7523 93.174 81.4527 93.2239 81.1531V80.0044C93.2239 79.2054 93.2239 78.3564 93.124 77.5574C93.124 77.4075 92.9742 77.3077 92.7744 77.3077C92.6746 77.3077 92.5747 77.3576 92.5247 77.4575C92.0753 78.2066 91.7756 79.0056 91.5759 79.8546C91.476 80.2541 91.3761 80.7036 91.3761 81.1531C91.3262 81.5027 91.3262 81.8023 91.3761 82.1519H88.4296C86.6817 82.1519 84.9338 82.1519 83.1859 82.1019V81.8522C83.1859 81.5526 83.2358 81.1531 83.2358 80.8035V79.6549C83.2358 78.8558 83.2358 78.0068 83.136 77.2078C83.136 77.058 82.9861 76.9581 82.7864 76.9581C82.6865 76.9581 82.5866 77.008 82.5367 77.1079C82.0872 77.857 81.7876 78.656 81.5878 79.505C81.4879 79.9046 81.388 80.354 81.388 80.8035C81.3381 81.2529 81.388 81.7024 81.4879 82.1019C81.0884 82.1019 80.6389 82.052 80.2394 82.052C78.941 82.002 77.6425 81.7523 76.394 81.3528C75.8447 81.203 75.2953 80.9034 74.8459 80.5538C74.4463 80.2042 74.1966 79.7547 74.0968 79.2553C73.9969 78.706 74.0468 78.1067 74.1966 77.5574L74.4463 76.6085L74.5962 76.159L74.7959 75.7096C75.2454 74.511 75.8447 73.3624 76.6437 72.3636C77.4428 71.3648 78.3916 70.5158 79.4903 69.9165C80.589 69.3172 81.7876 68.8677 83.0361 68.7179C85.583 68.3683 88.13 68.7179 90.4772 69.7667C94.0729 71.3648 96.9195 74.2613 98.4177 77.9069C98.9171 79.1555 99.2667 80.4539 99.4664 81.8023C99.4664 81.9022 99.5663 82.0021 99.7162 82.0021C99.7661 82.0021 99.7661 82.0021 99.7661 82.0021C99.866 82.0021 99.9659 81.8522 99.9659 81.7524C100.016 80.2541 99.866 78.7559 99.5164 77.2577Z" fill="black"/>
<path d="M63.3588 44.447C61.8606 45.0962 60.2625 45.2959 58.6644 45.0462C54.4195 44.5468 55.5681 41.101 49.9748 41.2008V39.8524C51.3732 39.3031 55.1187 37.6551 54.6692 34.9084C54.3696 32.9107 52.0723 32.2116 49.4754 32.1117C46.8785 32.2116 44.5813 32.9107 44.2816 34.9084C43.8322 37.6551 47.5777 39.353 48.976 39.8524V41.2508C41.3351 41.8001 44.4814 47.3934 35.5421 46.5944C34.6431 46.5444 33.7442 46.2448 32.9951 45.7953C32.7953 45.6955 32.5456 45.7454 32.3958 45.9452C32.3459 46.0451 32.2959 46.1949 32.3459 46.2948C33.095 48.4422 35.9416 50.4897 39.6871 51.7882C38.4885 56.1829 40.1865 59.9784 42.3839 60.9772C44.1817 61.7763 47.6276 61.6764 49.4255 60.8773C51.8226 59.8286 55.8178 57.6312 57.366 50.6396C59.913 49.2412 62.0104 47.1937 63.5586 44.7466C63.6085 44.6467 63.5586 44.5468 63.5087 44.4969C63.4587 44.447 63.4088 44.447 63.3588 44.447Z" fill="black"/>
<path d="M49.4759 49.1912C48.0776 48.1924 43.7328 46.1948 41.1858 53.2863C39.8374 57.1317 41.9349 59.1793 43.7827 59.9284C45.4307 60.5776 47.2785 60.278 48.8766 59.5788C51.0241 58.6799 54.42 56.3327 55.0193 52.3874C55.9182 46.9439 49.9753 48.9914 49.4759 49.1912Z" fill="#F5AFAC"/>
<path d="M50.6743 48.6918C50.1249 49.0913 49.6255 49.5408 49.226 50.0901C48.7765 50.6395 48.377 51.2388 48.0274 51.888C47.6279 52.5372 47.3283 53.1864 46.9787 53.8856L45.9799 55.9332C45.9299 56.033 45.8301 56.1329 45.7302 56.083C45.6802 56.083 45.6802 56.083 45.6303 56.033C45.5304 55.9831 45.4805 55.8832 45.4805 55.7833C45.5803 54.9843 45.7801 54.2352 46.0298 53.4861C46.2795 52.737 46.5792 51.9879 46.8788 51.2887C47.1784 50.5396 47.578 49.8404 48.0774 49.1912C48.5768 48.492 49.1761 47.8928 49.8752 47.3934C50.2248 47.1437 50.6743 47.2435 50.924 47.5432C50.924 47.5432 50.924 47.5432 50.924 47.5931C51.1237 47.9926 51.0238 48.4421 50.6743 48.6918Z" fill="black"/>
</svg>
